SplineFontDB: 1.0
FontName: UbuntuTitleExtralight
FullName: UbuntuTitleExtralight
FamilyName: UbuntuTitleExtralight
Weight: Extralight
Copyright: Copyright (c) 2005 Canonical Ltd.\nmade by Andrew Fitzsimon ( andrew@fitzsimon.com.au ) \nreleased under the LGPL ( http://www.gnu.org/copyleft/lesser.html )\nextralight version from Paulo Silva - june'07
Version: 002.000
ItalicAngle: 0
UnderlinePosition: -100
UnderlineWidth: 50
Ascent: 800
Descent: 200
Order2: 1
XUID: [1021 682 1097764676 9831424]
FSType: 0
OS2Version: 1
OS2_WeightWidthSlopeOnly: 0
OS2_UseTypoMetrics: 1
CreationTime: 1124425253
ModificationTime: 1181121357
PfmFamily: 17
TTFWeight: 400
TTFWidth: 5
LineGap: 88
VLineGap: 0
Panose: 2 0 5 3 0 0 0 0 0 0
OS2TypoAscent: 0
OS2TypoAOffset: 1
OS2TypoDescent: 0
OS2TypoDOffset: 1
OS2TypoLinegap: 0
OS2WinAscent: 0
OS2WinAOffset: 1
OS2WinDescent: 0
OS2WinDOffset: 1
HheadAscent: 0
HheadAOffset: 1
HheadDescent: 0
HheadDOffset: 1
OS2SubXSize: 648
OS2SubYSize: 696
OS2SubXOff: 0
OS2SubYOff: 138
OS2SupXSize: 648
OS2SupYSize: 696
OS2SupXOff: 0
OS2SupYOff: 476
OS2StrikeYSize: 48
OS2StrikeYPos: 256
OS2Vendor: 'PfEd'
ScriptLang: 1
 1 latn 1 dflt 
TableOrder: GPOS 1
	'kern'
TtfTable: cvt  4
!$MDh
EndTtf
TtfTable: maxp 32
!!*'"!+>k6!!<3$!!!!#!!!!"!!*'"!'gMaz
EndTtf
LangName: 1033 
LangName: 2057 "" "" "Ubuntu-Title" 
LangName: 3081 "" "" "Ubuntu-Title" 
Encoding: UnicodeFull
Compacted: 1
UnicodeInterp: none
NameList: Adobe Glyph List
DisplaySize: -48
AntiAlias: 1
FitToEm: 1
WinInfo: 34 17 8
BeginChars: 1114114 163
StartChar: exclam
Encoding: 33 33 4
Width: 315
GlyphClass: 2
Flags: W
HStem: -0.798828 37.5195<146.47 172.931>
VStem: 140.867 37.4375<4.72094 31.205 199.872 648.103 648.244 661.19>
Fore
178.451 17.9512 m 128,-1,1
 178.451 10.1895 178.451 10.1895 172.957 4.69531 c 128,-1,2
 167.463 -0.798828 167.463 -0.798828 159.701 -0.798828 c 128,-1,3
 151.938 -0.798828 151.938 -0.798828 146.444 4.69531 c 128,-1,4
 140.951 10.1885 140.951 10.1885 140.951 17.9512 c 128,-1,5
 140.951 25.7334 140.951 25.7334 146.444 31.2266 c 128,-1,6
 151.938 36.7207 151.938 36.7207 159.701 36.7207 c 128,-1,7
 167.463 36.7207 167.463 36.7207 172.957 31.2266 c 128,-1,0
 178.451 25.7324 178.451 25.7324 178.451 17.9512 c 128,-1,1
159.555 667.259 m 128,-1,9
 167.317 667.259 167.317 667.259 172.812 661.766 c 128,-1,10
 178.305 656.271 178.305 656.271 178.305 648.509 c 0,11,12
 178.306 648.436 178.306 648.436 178.29 648.301 c 0,13,-1
 178.367 648.103 l 1,14,-1
 178.367 210.172 l 1,15,16
 178.274 210.108 178.274 210.108 178.29 209.974 c 0,17,18
 178.305 202.003 178.305 202.003 172.812 196.51 c 128,-1,19
 167.317 191.016 167.317 191.016 159.555 191.016 c 128,-1,20
 151.82 191.016 151.82 191.016 146.344 196.656 c 128,-1,21
 140.867 202.297 140.867 202.297 140.867 211.047 c 2,22,-1
 140.867 647.228 l 2,23,24
 140.867 655.319 140.867 655.319 146.249 661.289 c 128,-1,8
 151.63 667.259 151.63 667.259 159.555 667.259 c 128,-1,9
EndSplineSet
EndChar
StartChar: quotedbl
Encoding: 34 34 5
Width: 393
GlyphClass: 2
Flags: W
VStem: 48.2705 37.4053<416.44 601.184> 256 37.4062<416.44 601.184>
Fore
274.688 619.826 m 128,-1,1
 282.45 619.826 282.45 619.826 287.944 614.333 c 128,-1,2
 293.438 608.839 293.438 608.839 293.438 601.076 c 0,3,4
 293.407 600.733 293.407 600.733 293.406 600.67 c 1,5,-1
 293.5 426.739 l 1,6,7
 293.407 426.676 293.407 426.676 293.423 426.541 c 128,-1,8
 293.438 426.406 293.438 426.406 293.438 426.333 c 0,9,10
 293.438 418.57 293.438 418.57 287.944 413.076 c 128,-1,11
 282.45 407.583 282.45 407.583 274.688 407.583 c 128,-1,12
 266.953 407.583 266.953 407.583 261.477 413.224 c 128,-1,13
 256 418.864 256 418.864 256 427.614 c 2,14,-1
 256 599.795 l 2,15,16
 256 607.887 256 607.887 261.382 613.856 c 128,-1,0
 266.763 619.826 266.763 619.826 274.688 619.826 c 128,-1,1
66.957 619.826 m 128,-1,18
 74.7197 619.826 74.7197 619.826 80.2139 614.333 c 128,-1,19
 85.707 608.839 85.707 608.839 85.707 601.076 c 0,20,21
 85.6768 600.733 85.6768 600.733 85.6758 600.67 c 1,22,-1
 85.7705 426.739 l 1,23,24
 85.6768 426.676 85.6768 426.676 85.6924 426.541 c 128,-1,25
 85.708 426.406 85.708 426.406 85.707 426.333 c 0,26,27
 85.707 418.57 85.707 418.57 80.2139 413.076 c 128,-1,28
 74.7197 407.583 74.7197 407.583 66.957 407.583 c 128,-1,29
 59.2227 407.583 59.2227 407.583 53.7471 413.224 c 128,-1,30
 48.2705 418.864 48.2705 418.864 48.2705 427.614 c 2,31,-1
 48.2705 599.795 l 2,32,33
 48.2705 607.887 48.2705 607.887 53.6514 613.856 c 128,-1,17
 59.0322 619.826 59.0322 619.826 66.957 619.826 c 128,-1,18
EndSplineSet
EndChar
StartChar: numbersign
Encoding: 35 35 6
Width: 723
GlyphClass: 2
Flags: W
HStem: 183.696 37.5<37.2294 164 201.5 456.594 494.094 628.8> 474.571 37.5<37.2294 164 201.5 456.594 494.094 628.8>
VStem: 164 37.4062<9.02163 183.696 221.196 474.571 512.071 692.446 692.446 692.961> 456.594 37.5<9.02163 183.696 221.196 474.571 512.071 692.842>
Fore
181.688 711.603 m 2,0,-1
 182.688 711.603 l 2,1,2
 190.451 711.603 190.451 711.603 195.944 706.109 c 128,-1,3
 201.438 700.615 201.438 700.615 201.438 692.853 c 0,4,5
 201.407 692.51 201.407 692.51 201.406 692.446 c 1,6,-1
 201.5 692.446 l 1,7,-1
 201.5 512.071 l 1,8,-1
 456.594 512.071 l 1,9,-1
 456.594 691.571 l 2,10,11
 456.594 699.387 456.594 699.387 461.655 705.286 c 128,-1,12
 466.717 711.186 466.717 711.186 474.281 711.603 c 2,13,-1
 475.281 711.603 l 2,14,15
 483.045 711.603 483.045 711.603 488.538 706.109 c 128,-1,16
 494.031 700.615 494.031 700.615 494.031 692.853 c 0,17,18
 494.001 692.51 494.001 692.51 494 692.446 c 1,19,-1
 494.094 512.071 l 1,20,-1
 618.5 512.071 l 1,21,22
 618.563 511.979 618.563 511.979 618.698 511.994 c 0,23,24
 626.669 512.009 626.669 512.009 632.163 506.516 c 128,-1,25
 637.656 501.022 637.656 501.022 637.656 493.259 c 128,-1,26
 637.656 485.524 637.656 485.524 632.016 480.048 c 128,-1,27
 626.375 474.571 626.375 474.571 617.625 474.571 c 2,28,-1
 494.094 474.571 l 1,29,-1
 494.094 221.196 l 1,30,-1
 618.5 221.196 l 1,31,32
 618.563 221.104 618.563 221.104 618.698 221.119 c 0,33,34
 626.669 221.134 626.669 221.134 632.163 215.641 c 128,-1,35
 637.656 210.147 637.656 210.147 637.656 202.384 c 128,-1,36
 637.656 194.649 637.656 194.649 632.016 189.173 c 128,-1,37
 626.375 183.696 626.375 183.696 617.625 183.696 c 2,38,-1
 494.094 183.696 l 1,39,-1
 494.094 19.3213 l 1,40,41
 494.002 19.2607 494.002 19.2607 494.017 19.125 c 0,42,43
 494.031 11.1523 494.031 11.1523 488.538 5.65918 c 128,-1,44
 483.045 0.165039 483.045 0.165039 475.281 0.165039 c 128,-1,45
 467.547 0.165039 467.547 0.165039 462.07 5.80566 c 128,-1,46
 456.594 11.4463 456.594 11.4463 456.594 20.1963 c 2,47,-1
 456.594 183.696 l 1,48,-1
 201.5 183.696 l 1,49,-1
 201.5 19.3213 l 1,50,-1
 201.406 19.3213 l 1,51,52
 201.438 18.9902 201.438 18.9902 201.438 18.915 c 0,53,54
 201.438 11.1523 201.438 11.1523 195.944 5.65918 c 128,-1,55
 190.451 0.165039 190.451 0.165039 182.688 0.165039 c 128,-1,56
 174.953 0.165039 174.953 0.165039 169.477 5.80566 c 128,-1,57
 164 11.4463 164 11.4463 164 20.1963 c 2,58,-1
 164 183.696 l 1,59,-1
 38.5 183.696 l 2,60,61
 30.4092 183.696 30.4092 183.696 24.4385 189.078 c 128,-1,62
 18.4688 194.46 18.4688 194.46 18.4688 202.384 c 128,-1,63
 18.4688 210.147 18.4688 210.147 23.9629 215.641 c 128,-1,64
 29.4561 221.134 29.4561 221.134 37.2188 221.134 c 0,65,66
 37.5625 221.104 37.5625 221.104 37.625 221.103 c 1,67,-1
 164 221.196 l 1,68,-1
 164 474.571 l 1,69,-1
 38.5 474.571 l 2,70,71
 30.4092 474.571 30.4092 474.571 24.4385 479.953 c 128,-1,72
 18.4688 485.335 18.4688 485.335 18.4688 493.259 c 128,-1,73
 18.4688 501.022 18.4688 501.022 23.9629 506.516 c 128,-1,74
 29.4561 512.009 29.4561 512.009 37.2188 512.009 c 0,75,76
 37.5625 511.979 37.5625 511.979 37.625 511.978 c 1,77,-1
 164 512.071 l 1,78,-1
 164 691.571 l 2,79,80
 164 699.387 164 699.387 169.062 705.286 c 128,-1,81
 174.123 711.186 174.123 711.186 181.688 711.603 c 2,0,-1
201.5 474.571 m 1,82,-1
 201.5 221.196 l 1,83,-1
 456.594 221.196 l 1,84,-1
 456.594 474.571 l 1,85,-1
 201.5 474.571 l 1,82,-1
EndSplineSet
EndChar
StartChar: dollar
Encoding: 36 36 7
Width: 563
GlyphClass: 2
Flags: W
HStem: 95.0938 37.4375<85.8857 254.657 292.157 409.898> 329.406 37.5<145.276 254.657 292.157 353.22> 557.188 37.5<134.308 254.657 292.157 454.863>
VStem: 60 37.2197<409.247 521.673> 254.657 37.4062<7.85659 94.5312 132.031 329.406 366.906 557.188 594.688 675.577> 448.907 37.2178<172.855 286.847>
Fore
254.657 674.188 m 1,0,1
 257.329 692.811 257.329 692.811 273.345 694.219 c 0,2,3
 281.107 694.219 281.107 694.219 286.602 688.725 c 128,-1,4
 292.095 683.231 292.095 683.231 292.095 675.469 c 0,5,6
 292.064 675.126 292.064 675.126 292.063 675.062 c 1,7,-1
 292.157 594.688 l 1,8,-1
 444.563 594.688 l 1,9,10
 444.627 594.595 444.627 594.595 444.762 594.61 c 0,11,12
 452.732 594.625 452.732 594.625 458.226 589.131 c 128,-1,13
 463.72 583.638 463.72 583.638 463.72 575.875 c 128,-1,14
 463.72 568.141 463.72 568.141 458.079 562.664 c 128,-1,15
 452.438 557.188 452.438 557.188 443.688 557.188 c 2,16,-1
 292.157 557.188 l 1,17,-1
 292.157 366.906 l 1,18,-1
 353.22 365.281 l 2,19,20
 412.202 365.281 412.202 365.281 449.163 327.46 c 128,-1,21
 486.125 289.639 486.125 289.639 486.125 229.938 c 0,22,23
 486.125 95.0938 486.125 95.0938 351.938 95.0938 c 2,24,-1
 292.157 94.5312 l 1,25,-1
 292.157 18.1562 l 1,26,27
 292.064 18.0928 292.064 18.0928 292.08 17.958 c 0,28,29
 292.095 9.9873 292.095 9.9873 286.602 4.49414 c 128,-1,30
 281.107 -1 281.107 -1 273.345 -1 c 128,-1,31
 265.61 -1 265.61 -1 260.134 4.64062 c 128,-1,32
 254.657 10.2812 254.657 10.2812 254.657 19.0312 c 2,33,-1
 254.657 94.5312 l 1,34,-1
 87.1572 94.5312 l 2,35,36
 79.0654 94.5312 79.0654 94.5312 73.0957 99.9131 c 128,-1,37
 67.125 105.294 67.125 105.294 67.125 113.219 c 128,-1,38
 67.125 120.981 67.125 120.981 72.6191 126.476 c 128,-1,39
 78.1123 131.969 78.1123 131.969 85.875 131.969 c 0,40,41
 86.2188 131.938 86.2188 131.938 86.2822 131.938 c 1,42,-1
 254.657 132.031 l 1,43,-1
 254.657 329.406 l 1,44,-1
 184.875 329.438 l 2,45,46
 131.963 329.438 131.963 329.438 95.9814 366.024 c 128,-1,47
 60 402.611 60 402.611 60 462.781 c 0,48,49
 60 525.675 60 525.675 96.4785 559.65 c 128,-1,50
 132.958 593.625 132.958 593.625 186.157 593.625 c 2,51,-1
 254.657 594.688 l 1,52,-1
 254.657 674.188 l 1,0,1
254.657 557.188 m 1,53,-1
 184.875 556.188 l 2,54,55
 145.978 556.188 145.978 556.188 121.599 532.345 c 128,-1,56
 97.2197 508.501 97.2197 508.501 97.2197 464.594 c 0,57,58
 97.2197 422.02 97.2197 422.02 121.248 394.447 c 128,-1,59
 145.276 366.875 145.276 366.875 186.157 366.875 c 2,60,-1
 254.657 366.906 l 1,61,-1
 254.657 557.188 l 1,53,-1
351.938 327.844 m 2,62,-1
 292.157 329.406 l 1,63,-1
 292.157 132.031 l 1,64,-1
 353.22 132.531 l 2,65,66
 396.818 132.531 396.818 132.531 422.863 159.07 c 128,-1,67
 448.907 185.609 448.907 185.609 448.907 228.125 c 0,68,69
 448.907 273.296 448.907 273.296 422.809 300.569 c 128,-1,70
 396.711 327.844 396.711 327.844 351.938 327.844 c 2,62,-1
EndSplineSet
EndChar
StartChar: quotesingle
Encoding: 39 39 8
Width: 311
GlyphClass: 2
Flags: W
VStem: 133.813 37.5<424.341 619.065>
Fore
152.5 627.728 m 128,-1,1
 160.264 627.728 160.264 627.728 165.757 622.234 c 128,-1,2
 171.25 616.74 171.25 616.74 171.25 608.978 c 0,3,-1
 171.313 608.571 l 1,4,-1
 171.313 434.641 l 1,5,-1
 171.25 434.234 l 1,6,7
 171.25 426.472 171.25 426.472 165.757 420.978 c 128,-1,8
 160.264 415.484 160.264 415.484 152.5 415.484 c 128,-1,9
 144.766 415.484 144.766 415.484 139.29 421.125 c 128,-1,10
 133.813 426.766 133.813 426.766 133.813 435.516 c 2,11,-1
 133.813 607.696 l 2,12,13
 133.813 615.787 133.813 615.787 139.194 621.758 c 128,-1,0
 144.576 627.728 144.576 627.728 152.5 627.728 c 128,-1,1
EndSplineSet
EndChar
StartChar: parenleft
Encoding: 40 40 9
Width: 311
GlyphClass: 2
Flags: W
VStem: 47.5 40<206.195 449.254>
Fore
166.312 702.25 m 4,0,1
 174.075 702.25 174.075 702.25 179.568 696.756 c 132,-1,2
 185.062 691.263 185.062 691.263 185.062 683.5 c 4,3,4
 185.062 677.106 185.062 677.106 179.5 667.75 c 4,5,6
 153.307 623.918 153.307 623.918 140.348 598.892 c 132,-1,7
 127.39 573.864 127.39 573.864 113.018 535.003 c 132,-1,8
 98.6445 496.143 98.6445 496.143 93.0723 452.171 c 132,-1,9
 87.5 408.199 87.5 408.199 87.5 349.75 c 4,10,11
 87.5 238.712 87.5 238.712 106.796 172.759 c 132,-1,12
 126.092 106.806 126.092 106.806 179.344 31.875 c 5,13,14
 185.062 26.3281 185.062 26.3281 185.062 18.4375 c 132,-1,15
 185.062 10.6758 185.062 10.6758 179.568 5.18164 c 132,-1,16
 174.074 -0.3125 174.074 -0.3125 166.312 -0.3125 c 4,17,18
 159.449 -0.3125 159.449 -0.3125 153.562 6.4375 c 4,19,20
 110.559 53.3633 110.559 53.3633 79.0293 146.343 c 132,-1,21
 47.5 239.323 47.5 239.323 47.5 349.75 c 4,22,23
 47.5 461.693 47.5 461.693 72.5371 543.073 c 132,-1,24
 97.5742 624.453 97.5742 624.453 147.562 693.5 c 4,25,26
 155.306 702.25 155.306 702.25 166.312 702.25 c 4,0,1
EndSplineSet
EndChar
StartChar: parenright
Encoding: 41 41 10
Width: 263
GlyphClass: 2
Flags: W
VStem: 152.5 40<206.195 449.254>
Fore
73.6875 702.25 m 0,0,1
 84.6943 702.25 84.6943 702.25 92.4375 693.5 c 0,2,3
 142.426 624.453 142.426 624.453 167.463 543.073 c 128,-1,4
 192.5 461.693 192.5 461.693 192.5 349.75 c 0,5,6
 192.5 239.323 192.5 239.323 160.971 146.343 c 128,-1,7
 129.441 53.3633 129.441 53.3633 86.4375 6.4375 c 0,8,9
 80.5508 -0.3125 80.5508 -0.3125 73.6875 -0.3125 c 0,10,11
 65.9258 -0.3125 65.9258 -0.3125 60.4316 5.18164 c 128,-1,12
 54.9375 10.6758 54.9375 10.6758 54.9375 18.4375 c 128,-1,13
 54.9375 26.3281 54.9375 26.3281 60.6562 31.875 c 1,14,15
 113.908 106.806 113.908 106.806 133.204 172.759 c 128,-1,16
 152.5 238.712 152.5 238.712 152.5 349.75 c 0,17,18
 152.5 408.199 152.5 408.199 146.928 452.171 c 128,-1,19
 141.355 496.143 141.355 496.143 126.982 535.003 c 128,-1,20
 112.61 573.864 112.61 573.864 99.6523 598.892 c 128,-1,21
 86.6934 623.918 86.6934 623.918 60.5 667.75 c 0,22,23
 54.9375 677.106 54.9375 677.106 54.9375 683.5 c 0,24,25
 54.9375 691.263 54.9375 691.263 60.4316 696.756 c 128,-1,26
 65.9248 702.25 65.9248 702.25 73.6875 702.25 c 0,0,1
EndSplineSet
EndChar
StartChar: asterisk
Encoding: 42 42 11
Width: 461
GlyphClass: 2
Flags: W
HStem: 577.094 37.5<58.767 233.969 298.938 483.862>
Fore
162.094 794.344 m 0,0,1
 173.366 794.586 173.366 794.586 179.531 783.906 c 2,2,-1
 266.469 633.344 l 1,3,-1
 353.781 784.594 l 1,4,5
 353.874 784.586 353.874 784.586 353.935 784.715 c 0,6,7
 357.913 791.631 357.913 791.631 365.407 793.646 c 128,-1,8
 372.901 795.661 372.901 795.661 379.625 791.781 c 128,-1,9
 386.326 787.913 386.326 787.913 388.222 780.426 c 128,-1,10
 390.118 772.938 390.118 772.938 385.812 765.094 c 2,11,-1
 298.906 614.594 l 1,12,-1
 473.562 614.594 l 1,13,-1
 473.562 614.5 l 1,14,15
 473.626 614.501 473.626 614.501 473.761 614.517 c 0,16,17
 481.731 614.531 481.731 614.531 487.226 609.038 c 128,-1,18
 492.719 603.544 492.719 603.544 492.719 595.781 c 128,-1,19
 492.719 588.047 492.719 588.047 487.078 582.57 c 128,-1,20
 481.438 577.094 481.438 577.094 472.688 577.094 c 2,21,-1
 298.938 577.094 l 1,22,-1
 385.812 426.625 l 2,23,24
 389.909 419.849 389.909 419.849 388.214 411.874 c 128,-1,25
 386.519 403.898 386.519 403.898 379.656 399.938 c 128,-1,26
 372.933 396.057 372.933 396.057 365.423 398.073 c 128,-1,27
 357.914 400.089 357.914 400.089 354.031 406.812 c 0,28,29
 353.874 407.133 353.874 407.133 353.844 407.188 c 1,30,-1
 266.469 558.375 l 1,31,-1
 179.531 407.812 l 2,32,33
 175.485 400.805 175.485 400.805 167.958 398.364 c 128,-1,34
 160.431 395.923 160.431 395.923 153.344 399.812 c 0,35,36
 146.62 403.695 146.62 403.695 144.604 411.205 c 128,-1,37
 142.589 418.715 142.589 418.715 146.469 425.438 c 0,38,39
 146.505 425.5 146.505 425.5 146.595 425.613 c 0,40,-1
 146.625 425.812 l 1,41,-1
 233.969 577.094 l 1,42,-1
 60.1562 577.094 l 2,43,44
 52.0654 577.094 52.0654 577.094 46.0947 582.476 c 128,-1,45
 40.125 587.856 40.125 587.856 40.125 595.781 c 128,-1,46
 40.125 603.544 40.125 603.544 45.6191 609.037 c 128,-1,47
 51.1123 614.531 51.1123 614.531 58.875 614.531 c 0,48,49
 59.2188 614.501 59.2188 614.501 59.2812 614.5 c 1,50,-1
 59.2812 614.594 l 1,51,-1
 234 614.594 l 1,52,-1
 146.625 765.906 l 1,53,54
 146.685 766.025 146.685 766.025 146.595 766.122 c 1,55,56
 142.589 773.004 142.589 773.004 144.604 780.514 c 128,-1,57
 146.62 788.023 146.62 788.023 153.344 791.906 c 0,58,59
 157.394 794.243 157.394 794.243 162.094 794.344 c 0,0,1
EndSplineSet
EndChar
StartChar: plus
Encoding: 43 43 12
Width: 524
GlyphClass: 2
Flags: W
HStem: 371.625 37.5<84.7294 297.5 335 557.706>
VStem: 297.5 37.5<148.95 371.625 409.125 631.996>
Fore
315.188 640.656 m 2,0,-1
 316.188 640.656 l 2,1,2
 323.951 640.656 323.951 640.656 329.444 635.162 c 128,-1,3
 334.938 629.669 334.938 629.669 334.938 621.906 c 0,4,-1
 335 621.5 l 1,5,-1
 335 409.125 l 1,6,-1
 547.406 409.125 l 1,7,8
 547.47 409.032 547.47 409.032 547.604 409.048 c 128,-1,9
 547.739 409.063 547.739 409.063 547.812 409.062 c 0,10,11
 555.575 409.062 555.575 409.062 561.068 403.569 c 128,-1,12
 566.562 398.075 566.562 398.075 566.562 390.312 c 128,-1,13
 566.562 382.578 566.562 382.578 560.922 377.102 c 128,-1,14
 555.281 371.625 555.281 371.625 546.531 371.625 c 2,15,-1
 335 371.625 l 1,16,-1
 335 159.25 l 1,17,-1
 334.938 158.844 l 1,18,19
 334.938 151.081 334.938 151.081 329.444 145.588 c 128,-1,20
 323.951 140.094 323.951 140.094 316.188 140.094 c 128,-1,21
 308.453 140.094 308.453 140.094 302.977 145.734 c 128,-1,22
 297.5 151.375 297.5 151.375 297.5 160.125 c 2,23,-1
 297.5 371.625 l 1,24,-1
 86 371.625 l 2,25,26
 77.9092 371.625 77.9092 371.625 71.9395 377.007 c 128,-1,27
 65.9688 382.388 65.9688 382.388 65.9688 390.312 c 128,-1,28
 65.9688 398.075 65.9688 398.075 71.4629 403.569 c 128,-1,29
 76.9561 409.062 76.9561 409.062 84.7188 409.062 c 0,30,31
 85.0625 409.032 85.0625 409.032 85.125 409.031 c 1,32,-1
 297.5 409.125 l 1,33,-1
 297.5 620.625 l 2,34,35
 297.5 628.44 297.5 628.44 302.562 634.34 c 128,-1,36
 307.623 640.239 307.623 640.239 315.188 640.656 c 2,0,-1
EndSplineSet
EndChar
StartChar: comma
Encoding: 44 44 13
Width: 161
GlyphClass: 2
Flags: W
VStem: 39.5 37.5<5.1511 187.941>
Fore
58.1875 207.098 m 1,0,1
 77.0051 202.243 77.0051 202.243 77 187.941 c 2,2,-1
 76.9375 13.6035 l 2,3,4
 76.9348 6.11243 76.9348 6.11243 71.4434 0.347656 c 0,5,6
 65.9502 -5.14648 65.9502 -5.14648 58.1875 -5.14648 c 128,-1,7
 50.4531 -5.14648 50.4531 -5.14648 44.9766 0.494141 c 128,-1,8
 39.5 6.13477 39.5 6.13477 39.5 14.8848 c 2,9,-1
 39.5 187.066 l 2,10,11
 39.5 195.157 39.5 195.157 44.8818 201.128 c 128,-1,12
 50.2637 207.098 50.2637 207.098 58.1875 207.098 c 1,0,1
EndSplineSet
EndChar
StartChar: hyphen
Encoding: 45 45 14
Width: 218
GlyphClass: 2
Flags: W
HStem: 219.965 37.4375<32.2643 45.209 45.3506 248.5>
Fore
26.1953 238.652 m 128,-1,1
 26.1953 246.415 26.1953 246.415 31.6885 251.909 c 128,-1,2
 37.1826 257.402 37.1826 257.402 44.9453 257.402 c 0,3,4
 45.0176 257.402 45.0176 257.402 45.1523 257.388 c 0,5,-1
 45.3506 257.465 l 1,6,-1
 237.282 257.465 l 1,7,8
 237.347 257.372 237.347 257.372 237.481 257.388 c 0,9,10
 245.451 257.402 245.451 257.402 250.944 251.909 c 128,-1,11
 256.438 246.415 256.438 246.415 256.438 238.652 c 0,12,13
 248.5 234.23 248.5 234.23 248.5 223.062 c 0,14,15
 248.5 219.965 248.5 219.965 236.407 219.965 c 2,16,-1
 46.2256 219.965 l 2,17,18
 38.1348 219.965 38.1348 219.965 32.165 225.347 c 128,-1,0
 26.1953 230.728 26.1953 230.728 26.1953 238.652 c 128,-1,1
EndSplineSet
EndChar
StartChar: period
Encoding: 46 46 15
Width: 127
GlyphClass: 2
Flags: W
HStem: 0.260742 37.5938<40.9312 67.4581>
VStem: 35.4062 37.5938<5.78572 32.3121>
Fore
54.1875 37.8545 m 128,-1,1
 61.9707 37.8545 61.9707 37.8545 67.4854 32.3398 c 128,-1,2
 73 26.8242 73 26.8242 73 19.042 c 128,-1,3
 73 11.2627 73 11.2627 67.4863 5.76172 c 128,-1,4
 61.9727 0.260742 61.9727 0.260742 54.1875 0.260742 c 128,-1,5
 46.4043 0.260742 46.4043 0.260742 40.9053 5.75977 c 128,-1,6
 35.4062 11.2598 35.4062 11.2598 35.4062 19.042 c 128,-1,7
 35.4062 26.8281 35.4062 26.8281 40.9072 32.3408 c 128,-1,0
 46.4082 37.8545 46.4082 37.8545 54.1875 37.8545 c 128,-1,1
EndSplineSet
EndChar
StartChar: slash
Encoding: 47 47 16
Width: 695
GlyphClass: 2
Flags: W
VStem: 82.9336 452.205<34.6348 683.805>
Fore
86.4297 8.01465 m 5,0,1
 75.1465 22.0928 75.1465 22.0928 82.9336 34.6348 c 6,2,-1
 501.741 692.434 l 6,3,4
 506.413 698.633 506.413 698.633 514.106 699.714 c 132,-1,5
 521.8 700.795 521.8 700.795 528 696.124 c 132,-1,6
 534.177 691.47 534.177 691.47 535.139 683.805 c 132,-1,7
 536.101 676.139 536.101 676.139 530.869 668.88 c 6,8,-1
 113.409 12.7656 l 6,9,10
 108.539 6.30371 108.539 6.30371 100.765 4.79688 c 132,-1,11
 92.9902 3.29004 92.9902 3.29004 86.4297 8.01465 c 5,0,1
EndSplineSet
EndChar
StartChar: zero
Encoding: 48 48 17
Width: 559
GlyphClass: 2
Flags: W
HStem: -1.37793 38.5<158.669 406.687> 660.216 37.2188<218.605 397.995>
VStem: 49 36<148.62 450.751> 473 36<132.898 544.295>
Fore
276.438 697.435 m 0,0,1
 396.219 697.435 396.219 697.435 452.609 609.401 c 128,-1,2
 509 521.368 509 521.368 509 334.091 c 0,3,4
 509 154.591 509 154.591 451.805 76.6064 c 128,-1,5
 394.609 -1.37793 394.609 -1.37793 274.906 -1.37793 c 0,6,7
 161.199 -1.37793 161.199 -1.37793 105.1 76.5654 c 128,-1,8
 49 154.511 49 154.511 49 334.091 c 0,9,10
 49 522.321 49 522.321 105.039 609.878 c 128,-1,11
 161.08 697.435 161.08 697.435 276.438 697.435 c 0,0,1
278.25 660.216 m 0,12,13
 232.369 660.216 232.369 660.216 197.908 643.286 c 128,-1,14
 163.447 626.354 163.447 626.354 137.533 588.989 c 128,-1,15
 111.619 551.624 111.619 551.624 98.3086 487.728 c 128,-1,16
 85 423.829 85 423.829 85 334.091 c 0,17,18
 85 191.421 85 191.421 135.285 114.272 c 128,-1,19
 185.572 37.1221 185.572 37.1221 275.25 37.1221 c 0,20,21
 376.355 37.1221 376.355 37.1221 424.678 108.224 c 128,-1,22
 473 179.327 473 179.327 473 334.091 c 0,23,24
 473 495.786 473 495.786 421.682 578.001 c 128,-1,25
 370.361 660.216 370.361 660.216 278.25 660.216 c 0,12,13
EndSplineSet
EndChar
StartChar: one
Encoding: 49 49 18
Width: 173
GlyphClass: 2
Flags: W
HStem: 660.31 38.3125<11.4308 90.3555>
VStem: 90.5742 38.25<5.48623 660.31>
Fore
109.043 698.622 m 2,0,1
 116.289 698.622 116.289 698.622 121.668 693.716 c 0,2,3
 128.824 688.06 128.824 688.06 128.824 678.997 c 2,4,-1
 128.824 18.3389 l 2,5,6
 128.824 10.415 128.824 10.415 122.854 5.03223 c 128,-1,7
 116.885 -0.348633 116.885 -0.348633 108.793 -0.348633 c 128,-1,8
 100.799 -0.348633 100.799 -0.348633 95.6855 4.70996 c 128,-1,9
 90.5742 9.7666 90.5742 9.7666 90.5742 18.3389 c 2,10,-1
 90.3555 660.31 l 1,11,-1
 22.6055 660.31 l 2,12,13
 13.8555 660.31 13.8555 660.31 8.21484 665.786 c 128,-1,14
 2.57422 671.261 2.57422 671.261 2.57422 678.997 c 0,15,16
 2.57422 688.243 2.57422 688.243 7.77344 693.979 c 128,-1,17
 12.9727 699.716 12.9727 699.716 21.7305 699.716 c 2,18,-1
 109.043 698.622 l 2,0,1
EndSplineSet
EndChar
StartChar: two
Encoding: 50 50 19
Width: 493
GlyphClass: 2
Flags: W
HStem: 5.10449 38.4688<86.1348 419.183> 282.948 40.7188<152.137 359.141> 663.542 37.2188<148.274 358.41>
VStem: 47.5098 35.8438<43.5732 226.746> 51.5098 34.1562<591.655 643.802> 415.322 35.9375<382.854 604.075>
Fore
249.479 700.761 m 0,0,1
 352.236 700.761 352.236 700.761 401.748 649.974 c 128,-1,2
 451.26 599.188 451.26 599.188 451.26 493.229 c 0,3,4
 451.26 379.784 451.26 379.784 403.359 331.366 c 128,-1,5
 355.461 282.948 355.461 282.948 242.229 282.948 c 0,6,7
 172.928 282.948 172.928 282.948 128.141 245.427 c 128,-1,8
 83.3535 207.905 83.3535 207.905 83.3535 145.104 c 2,9,-1
 86.1348 43.5732 l 1,10,-1
 432.104 43.3545 l 2,11,12
 440.676 43.3545 440.676 43.3545 445.732 38.2412 c 128,-1,13
 450.791 33.1299 450.791 33.1299 450.791 25.1357 c 128,-1,14
 450.791 17.0439 450.791 17.0439 445.408 11.0732 c 128,-1,15
 440.027 5.10254 440.027 5.10254 432.104 5.10449 c 2,16,-1
 67.4473 5.10449 l 2,17,18
 58.3848 5.10449 58.3848 5.10449 52.7285 12.2607 c 0,19,20
 47.8223 17.6396 47.8223 17.6396 47.8223 24.8857 c 2,21,-1
 47.5098 152.198 l 2,22,23
 47.5098 234.862 47.5098 234.862 105.137 279.265 c 128,-1,24
 162.766 323.667 162.766 323.667 263.604 323.667 c 0,25,26
 337.094 323.667 337.094 323.667 376.209 365.177 c 128,-1,27
 415.322 406.688 415.322 406.688 415.322 486.136 c 0,28,29
 415.322 576.858 415.322 576.858 374.088 620.2 c 128,-1,30
 332.854 663.542 332.854 663.542 247.666 663.542 c 0,31,32
 155.004 663.542 155.004 663.542 120.334 652.399 c 128,-1,33
 85.666 641.257 85.666 641.257 85.666 602.261 c 0,34,35
 85.666 594.909 85.666 594.909 80.7109 590.522 c 128,-1,36
 75.7578 586.136 75.7578 586.136 70.2598 586.136 c 0,37,38
 62.4961 586.136 62.4961 586.136 57.002 591.63 c 128,-1,39
 51.5098 597.124 51.5098 597.124 51.5098 604.886 c 0,40,41
 51.5098 634.821 51.5098 634.821 64.2148 654.173 c 128,-1,42
 76.9199 673.526 76.9199 673.526 104.354 683.526 c 128,-1,43
 131.785 693.524 131.785 693.524 165.209 697.144 c 128,-1,44
 198.633 700.761 198.633 700.761 249.479 700.761 c 0,0,1
EndSplineSet
EndChar
StartChar: three
Encoding: 51 51 20
Width: 493
GlyphClass: 2
Flags: W
HStem: -1.99902 36<142.552 383.918> 326.157 36.0312<222.747 319.596> 661.782 36<143.512 459.291>
VStem: 43.2188 37.5938<546.744 628.398> 405.418 35.7418<216.676 287.2> 408 38.5<69.2729 263.522 430.522 709.707>
Fore
237.031 697.782 m 0,0,1
 446.5 697.782 446.5 697.782 446.5 501.688 c 0,2,3
 446.5 423.108 446.5 423.108 435.359 390.187 c 128,-1,4
 424.219 357.265 424.219 357.265 392.438 343.407 c 1,5,6
 415.633 331.987 415.633 331.987 425.727 319.567 c 128,-1,7
 435.82 307.149 435.82 307.149 441.16 276.851 c 128,-1,8
 446.5 246.554 446.5 246.554 446.5 185.907 c 0,9,10
 446.5 96.1885 446.5 96.1885 397.799 47.0947 c 128,-1,11
 349.098 -1.99902 349.098 -1.99902 233.031 -1.99902 c 0,12,13
 147.148 -1.99902 147.148 -1.99902 95.3926 32.3076 c 128,-1,14
 43.6367 66.6143 43.6367 66.6143 43.2188 126.532 c 0,15,16
 43.2188 134.317 43.2188 134.317 48.7207 139.831 c 128,-1,17
 54.2207 145.345 54.2207 145.345 62 145.345 c 1,18,19
 79.6445 140.657 79.6445 140.657 81.7188 124.907 c 0,20,21
 93.5723 81.8994 93.5723 81.8994 128.502 57.9502 c 128,-1,22
 163.432 34.001 163.432 34.001 233.031 34.001 c 0,23,24
 408 34.001 408 34.001 408 186.251 c 0,25,26
 408 208.626 408 208.626 407.031 225.433 c 128,-1,27
 406.061 242.239 406.061 242.239 403.805 256.528 c 128,-1,28
 401.549 270.817 401.549 270.817 397.85 280.47 c 128,-1,29
 394.148 290.122 394.148 290.122 388.688 298.19 c 128,-1,30
 383.227 306.259 383.227 306.259 375.848 310.624 c 128,-1,31
 368.469 314.989 368.469 314.989 358.854 318.706 c 128,-1,32
 349.238 322.421 349.238 322.421 337.23 323.364 c 128,-1,33
 325.223 324.31 325.223 324.31 310.504 325.538 c 128,-1,34
 295.785 326.767 295.785 326.767 278.199 326.157 c 128,-1,35
 260.615 325.548 260.615 325.548 239.844 326.157 c 0,36,37
 226.449 326.157 226.449 326.157 221.52 335.165 c 128,-1,38
 216.59 344.173 216.59 344.173 222.16 353.181 c 128,-1,39
 227.732 362.188 227.732 362.188 239.844 362.188 c 0,40,41
 279.561 362.188 279.561 362.188 302.193 363.36 c 128,-1,42
 324.824 364.532 324.824 364.532 346.369 369.683 c 128,-1,43
 367.916 374.833 367.916 374.833 377.773 383.167 c 128,-1,44
 387.631 391.503 387.631 391.503 395.664 408.103 c 128,-1,45
 403.699 424.7 403.699 424.7 405.85 446.345 c 128,-1,46
 408 467.989 408 467.989 408 502.032 c 0,47,48
 408 661.782 408 661.782 237.031 661.782 c 0,49,50
 165.094 661.782 165.094 661.782 122.953 637.198 c 128,-1,51
 80.8125 612.614 80.8125 612.614 80.8125 560.001 c 0,52,53
 80.8125 552.222 80.8125 552.222 75.2988 546.72 c 128,-1,54
 69.7871 541.22 69.7871 541.22 62 541.22 c 128,-1,55
 54.2168 541.22 54.2168 541.22 48.7188 546.72 c 128,-1,56
 43.2207 552.218 43.2207 552.218 43.2188 560.001 c 0,57,58
 43.2188 632.979 43.2188 632.979 93.1973 665.38 c 128,-1,59
 143.176 697.782 143.176 697.782 237.031 697.782 c 0,0,1
EndSplineSet
EndChar
StartChar: four
Encoding: 52 52 21
Width: 531
GlyphClass: 2
Flags: W
HStem: 152.532 37.5<72.5 357.125 394.594 471.583>
VStem: 357.125 37.4688<11.7013 152.532 190.032 617.22>
Fore
375.812 701.095 m 1,0,1
 393.295 696.642 393.295 696.642 394.625 681.938 c 2,2,-1
 394.594 190.032 l 1,3,-1
 470.312 190.032 l 2,4,5
 478.402 190.032 478.402 190.032 484.373 184.649 c 128,-1,6
 490.344 179.269 490.344 179.269 490.344 171.345 c 128,-1,7
 490.344 163.581 490.344 163.581 484.85 158.087 c 128,-1,8
 479.355 152.595 479.355 152.595 471.594 152.595 c 0,9,10
 471.25 152.624 471.25 152.624 471.188 152.626 c 1,11,-1
 394.562 152.532 l 1,12,-1
 394.562 21.5947 l 2,13,14
 394.562 13.8311 394.562 13.8311 389.068 8.33691 c 128,-1,15
 383.574 2.84473 383.574 2.84473 375.812 2.84473 c 128,-1,16
 368.076 2.84473 368.076 2.84473 362.602 8.48535 c 128,-1,17
 357.125 14.126 357.125 14.126 357.125 22.876 c 2,18,-1
 357.125 152.532 l 1,19,-1
 72.4688 152.532 l 2,20,21
 42.998 152.532 42.998 152.532 33.752 169.224 c 128,-1,22
 24.5059 185.915 24.5059 185.915 40 208.751 c 2,23,-1
 357.562 685.251 l 1,24,25
 360.748 701.095 360.748 701.095 375.812 701.095 c 1,0,1
357.125 617.22 m 1,26,-1
 72.5 190.032 l 1,27,-1
 357.125 190.032 l 1,28,-1
 357.125 617.22 l 1,26,-1
EndSplineSet
EndChar
StartChar: five
Encoding: 53 53 22
Width: 499
GlyphClass: 2
Flags: W
HStem: -1.2666 37.2188<191.523 353.529> 378.233 37.502<89.8809 327.873> 659.286 37.4375<89.8809 447.254>
VStem: 52.4746 37.4062<415.735 659.286> 418.787 35.8438<113.65 311.849>
Fore
52.4746 672.005 m 1,0,1
 51.9688 682.88 51.9688 682.88 58.5801 689.833 c 128,-1,2
 65.1914 696.786 65.1914 696.786 76.6621 696.786 c 2,3,-1
 433.619 696.786 l 1,4,5
 433.682 696.694 433.682 696.694 433.816 696.71 c 128,-1,6
 433.951 696.724 433.951 696.724 434.025 696.724 c 0,7,8
 441.787 696.724 441.787 696.724 447.279 691.229 c 128,-1,9
 452.773 685.737 452.773 685.737 452.775 677.974 c 128,-1,10
 452.775 670.239 452.775 670.239 447.135 664.763 c 128,-1,11
 441.492 659.286 441.492 659.286 432.744 659.286 c 2,12,-1
 89.8809 659.286 l 1,13,-1
 89.8809 415.735 l 1,14,-1
 245.318 416.017 l 2,15,16
 339.371 416.017 339.371 416.017 397 363.864 c 128,-1,17
 454.631 311.714 454.631 311.714 454.631 225.046 c 0,18,19
 454.631 120.878 454.631 120.878 399.344 59.8057 c 128,-1,20
 344.057 -1.2666 344.057 -1.2666 240.85 -1.2666 c 0,21,22
 214.967 0.624023 214.967 0.624023 202.514 1.76074 c 128,-1,23
 190.061 2.89941 190.061 2.89941 166.258 6.59473 c 128,-1,24
 142.457 10.292 142.457 10.292 129.938 15.0342 c 128,-1,25
 117.42 19.7764 117.42 19.7764 100.279 28.8584 c 128,-1,26
 83.1387 37.9424 83.1387 37.9424 74.5449 49.8721 c 128,-1,27
 65.9492 61.8037 65.9492 61.8037 59.459 79.8545 c 128,-1,28
 52.9688 97.9072 52.9688 97.9072 52.8809 120.608 c 0,29,30
 52.8809 128.37 52.8809 128.37 58.375 133.864 c 128,-1,31
 63.8672 139.358 63.8672 139.358 71.6309 139.358 c 0,32,33
 81.4219 139.358 81.4219 139.358 87.0371 131.233 c 1,34,35
 87.0371 109.347 87.0371 109.347 92.5742 93.9346 c 128,-1,36
 98.1113 78.5225 98.1113 78.5225 113.355 64.3975 c 128,-1,37
 128.598 50.2744 128.598 50.2744 160.043 43.1123 c 128,-1,38
 191.486 35.9521 191.486 35.9521 239.037 35.9521 c 0,39,40
 327.107 35.9521 327.107 35.9521 372.947 86.835 c 128,-1,41
 418.787 137.72 418.787 137.72 418.787 217.952 c 0,42,43
 418.787 290.181 418.787 290.181 373.33 334.206 c 128,-1,44
 327.873 378.233 327.873 378.233 257.1 378.233 c 2,45,-1
 71.4434 378.233 l 2,46,47
 63.3516 378.233 63.3516 378.233 57.3809 383.614 c 128,-1,48
 51.4102 388.997 51.4102 388.997 51.4121 396.923 c 2,49,-1
 51.9434 534.464 l 2,50,-1
 52.4746 672.005 l 1,0,1
EndSplineSet
EndChar
StartChar: six
Encoding: 54 54 23
Width: 477
GlyphClass: 2
Flags: W
HStem: -0.239258 38.5<150.72 332.588> 327.354 37.2188<187.024 329.758> 653.106 37.2188<158.319 337.186>
VStem: 51.5 35.7812<146.735 283.929 319.011 593.153> 393.094 34.1562<77.4326 272.519 471.825 571.567>
Fore
243.281 690.325 m 0,0,1
 331.283 690.325 331.283 690.325 379.268 633.142 c 128,-1,2
 427.25 575.958 427.25 575.958 427.25 482.45 c 0,3,4
 427.25 474.687 427.25 474.687 421.756 469.192 c 128,-1,5
 416.264 463.7 416.264 463.7 408.5 463.7 c 0,6,7
 398.711 463.7 398.711 463.7 393.094 471.825 c 1,8,9
 393.094 548.55 393.094 548.55 354.514 600.827 c 128,-1,10
 315.934 653.106 315.934 653.106 245.094 653.106 c 0,11,12
 178.344 653.106 178.344 653.106 132.812 611.888 c 128,-1,13
 87.2812 570.671 87.2812 570.671 87.2812 495.731 c 0,14,15
 87.3926 494.128 87.3926 494.128 87.3438 493.7 c 1,16,-1
 87.4375 319.011 l 1,17,18
 110.588 338.726 110.588 338.726 150.336 351.649 c 128,-1,19
 190.084 364.573 190.084 364.573 233 364.573 c 0,20,21
 324.035 364.573 324.035 364.573 375.799 312.979 c 128,-1,22
 427.562 261.386 427.562 261.386 427.562 181.229 c 0,23,24
 427.562 -0.239258 427.562 -0.239258 231.469 -0.239258 c 0,25,26
 150.543 -0.239258 150.543 -0.239258 100.365 48.1729 c 128,-1,27
 50.1875 96.585 50.1875 96.585 50.1875 187.261 c 2,28,-1
 51.5 500.794 l 2,29,30
 51.5 586.481 51.5 586.481 107.045 638.403 c 128,-1,31
 162.59 690.325 162.59 690.325 243.281 690.325 c 0,0,1
234.812 327.354 m 0,32,33
 206.797 327.354 206.797 327.354 174.324 319.931 c 128,-1,34
 141.85 312.505 141.85 312.505 114.645 294.675 c 128,-1,35
 87.4375 276.845 87.4375 276.845 87.4375 253.229 c 2,36,-1
 86.5312 193.886 l 2,37,38
 91.3633 113.872 91.3633 113.872 130.398 76.0654 c 128,-1,39
 169.434 38.2607 169.434 38.2607 231.812 38.2607 c 0,40,41
 309.332 38.2607 309.332 38.2607 350.447 69.8232 c 128,-1,42
 391.562 101.386 391.562 101.386 391.562 181.229 c 0,43,44
 391.562 251.452 391.562 251.452 349.705 289.403 c 128,-1,45
 307.848 327.354 307.848 327.354 234.812 327.354 c 0,32,33
EndSplineSet
EndChar
StartChar: seven
Encoding: 55 55 24
Width: 519
GlyphClass: 2
Flags: W
HStem: 644.659 37.5<53.1708 452.254>
VStem: 34.4102 456.59<658.429 665.468 663.347 665.468>
Fore
452.285 682.159 m 2,0,1
 481.754 682.159 481.754 682.159 491 665.468 c 128,-1,2
 500.248 648.776 500.248 648.776 484.754 625.94 c 2,3,-1
 69.8164 -0.62207 l 2,4,5
 65.7695 -7.62988 65.7695 -7.62988 58.2422 -10.0713 c 128,-1,6
 50.7148 -12.5127 50.7148 -12.5127 43.6289 -8.62207 c 0,7,8
 36.9062 -4.74121 36.9062 -4.74121 34.8906 2.76855 c 128,-1,9
 32.875 10.2803 32.875 10.2803 36.7539 17.0029 c 0,10,11
 36.9707 17.292 36.9707 17.292 37.0039 17.3467 c 1,12,-1
 36.9102 17.3779 l 1,13,-1
 452.254 644.659 l 1,14,-1
 54.4414 644.659 l 2,15,16
 46.3496 644.659 46.3496 644.659 40.3789 650.042 c 128,-1,17
 34.4102 655.423 34.4102 655.423 34.4102 663.347 c 128,-1,18
 34.4102 671.11 34.4102 671.11 39.9043 676.603 c 128,-1,19
 45.3965 682.097 45.3965 682.097 53.1602 682.097 c 0,20,21
 53.5039 682.067 53.5039 682.067 53.5664 682.065 c 1,22,-1
 452.285 682.159 l 2,0,1
EndSplineSet
EndChar
StartChar: eight
Encoding: 56 56 25
Width: 527
GlyphClass: 2
Flags: W
HStem: -2.0127 36<138.752 387.994> 325.769 36.2188<173.239 330.008> 661.771 36<142.146 384.17>
VStem: 52.5 37.2188<84.3137 254.083 487.113 610.198> 438.812 38.5<88.1818 254.743 456.219 606.413>
Fore
263.844 697.771 m 0,0,1
 376.332 697.771 376.332 697.771 426.822 649.499 c 128,-1,2
 477.312 601.229 477.312 601.229 477.312 509.677 c 0,3,4
 477.312 451.216 477.312 451.216 450.834 405.905 c 128,-1,5
 424.355 360.591 424.355 360.591 373.25 343.394 c 1,6,7
 423.525 325.659 423.525 325.659 450.418 281.335 c 128,-1,8
 477.312 237.009 477.312 237.009 477.312 177.894 c 0,9,10
 477.312 89.4189 477.312 89.4189 429.051 43.7041 c 128,-1,11
 380.789 -2.0127 380.789 -2.0127 263.844 -2.0127 c 0,12,13
 148.338 -2.0127 148.338 -2.0127 100.418 43.001 c 128,-1,14
 52.5 88.0146 52.5 88.0146 52.5 179.425 c 0,15,16
 52.5 236.854 52.5 236.854 78.8418 280.956 c 128,-1,17
 105.182 325.058 105.182 325.058 155.156 343.05 c 1,18,19
 104.898 359.905 104.898 359.905 78.6992 405.349 c 128,-1,20
 52.5 450.79 52.5 450.79 52.5 511.208 c 0,21,22
 52.5 600.415 52.5 600.415 101.775 649.093 c 128,-1,23
 151.049 697.771 151.049 697.771 263.844 697.771 c 0,0,1
263.844 661.771 m 0,24,25
 170.23 661.771 170.23 661.771 129.975 624.771 c 128,-1,26
 89.7188 587.772 89.7188 587.772 89.7188 513.021 c 1,27,28
 101.863 432.345 101.863 432.345 144.035 395.495 c 128,-1,29
 186.207 358.646 186.207 358.646 263.844 361.987 c 0,30,31
 338.34 361.874 338.34 361.874 385.805 397.728 c 128,-1,32
 433.271 433.581 433.271 433.581 438.812 510.021 c 0,33,34
 438.812 584.169 438.812 584.169 397.607 622.97 c 128,-1,35
 356.402 661.771 356.402 661.771 263.844 661.771 c 0,24,25
263.844 325.769 m 0,36,37
 189.561 325.985 189.561 325.985 139.641 288.063 c 128,-1,38
 89.7188 250.144 89.7188 250.144 89.7188 181.237 c 0,39,40
 89.7188 106.681 89.7188 106.681 128.67 70.335 c 128,-1,41
 167.619 33.9873 167.619 33.9873 263.844 33.9873 c 0,42,43
 359.344 33.9873 359.344 33.9873 399.078 71.4756 c 128,-1,44
 438.812 108.964 438.812 108.964 438.812 178.237 c 0,45,46
 438.812 249.481 438.812 249.481 390.691 289.944 c 128,-1,47
 342.572 330.409 342.572 330.409 263.844 325.769 c 0,36,37
EndSplineSet
EndChar
StartChar: nine
Encoding: 57 57 26
Width: 459
GlyphClass: 2
Flags: W
HStem: -2.23926 37.2188<181.358 307.115> 329.511 37.2188<119.085 285.164> 651.825 38.5<114.653 297.93>
VStem: 30.4688 36<412.222 614.87> 364.75 35.7812<92.9654 369.073 433.153 550.763>
Fore
224.75 -2.23926 m 0,0,1
 137.012 -2.23926 137.012 -2.23926 83.5 65.917 c 0,2,3
 80.7793 70.3877 80.7793 70.3877 80.7812 75.6357 c 0,4,5
 80.7812 83.3994 80.7812 83.3994 86.2734 88.8916 c 128,-1,6
 91.7676 94.3857 91.7676 94.3857 99.5312 94.3857 c 0,7,8
 109.322 94.3857 109.322 94.3857 114.938 86.2607 c 0,9,10
 129.688 62.5381 129.688 62.5381 160.32 49.0771 c 128,-1,11
 190.953 35.6182 190.953 35.6182 222.938 34.9795 c 0,12,13
 287.689 34.9795 287.689 34.9795 326.221 75.4404 c 128,-1,14
 364.75 115.901 364.75 115.901 364.75 192.354 c 0,15,16
 364.641 193.968 364.641 193.968 364.688 194.386 c 1,17,-1
 364.594 369.073 l 1,18,19
 304.691 329.511 304.691 329.511 217.031 329.511 c 0,20,21
 127.092 329.511 127.092 329.511 78.7812 370.438 c 128,-1,22
 30.4688 411.368 30.4688 411.368 30.4688 508.856 c 0,23,24
 30.4688 608.243 30.4688 608.243 77.9863 649.284 c 128,-1,25
 125.504 690.325 125.504 690.325 218.562 690.325 c 0,26,27
 299.324 690.325 299.324 690.325 348.285 638.407 c 128,-1,28
 397.246 586.491 397.246 586.491 401.844 482.825 c 2,29,-1
 400.531 187.292 l 2,30,31
 400.531 100.036 400.531 100.036 352.086 48.8975 c 128,-1,32
 303.641 -2.23926 303.641 -2.23926 224.75 -2.23926 c 0,0,1
215.219 366.729 m 0,33,34
 263.854 366.729 263.854 366.729 294.596 374.405 c 128,-1,35
 325.336 382.079 325.336 382.079 340.432 399.093 c 128,-1,36
 355.525 416.104 355.525 416.104 360.514 435.614 c 128,-1,37
 365.5 455.124 365.5 455.124 365.5 486.2 c 0,38,39
 360.615 567.065 360.615 567.065 320.076 609.444 c 128,-1,40
 279.535 651.825 279.535 651.825 218.219 651.825 c 0,41,42
 138.553 651.825 138.553 651.825 102.512 621.114 c 128,-1,43
 66.4688 590.405 66.4688 590.405 66.4688 508.856 c 0,44,45
 66.4688 434.522 66.4688 434.522 103.869 400.628 c 128,-1,46
 141.27 366.729 141.27 366.729 215.219 366.729 c 0,33,34
EndSplineSet
EndChar
StartChar: colon
Encoding: 58 58 27
Width: 211
GlyphClass: 2
Flags: W
HStem: 97.5664 37.5<80.2419 106.703> 401.566 37.5<80.2419 106.703>
VStem: 74.7227 37.5<103.086 129.547 407.086 433.547>
Fore
112.223 420.316 m 128,-1,1
 112.223 412.555 112.223 412.555 106.729 407.061 c 128,-1,2
 101.234 401.566 101.234 401.566 93.4727 401.566 c 128,-1,3
 85.71 401.566 85.71 401.566 80.2168 407.061 c 128,-1,4
 74.7227 412.554 74.7227 412.554 74.7227 420.316 c 128,-1,5
 74.7227 428.079 74.7227 428.079 80.2168 433.573 c 128,-1,6
 85.71 439.066 85.71 439.066 93.4727 439.066 c 128,-1,7
 101.234 439.066 101.234 439.066 106.729 433.572 c 128,-1,0
 112.223 428.079 112.223 428.079 112.223 420.316 c 128,-1,1
112.223 116.316 m 128,-1,9
 112.223 108.555 112.223 108.555 106.729 103.061 c 128,-1,10
 101.234 97.5664 101.234 97.5664 93.4727 97.5664 c 128,-1,11
 85.71 97.5664 85.71 97.5664 80.2168 103.061 c 128,-1,12
 74.7227 108.554 74.7227 108.554 74.7227 116.316 c 128,-1,13
 74.7227 124.079 74.7227 124.079 80.2168 129.573 c 128,-1,14
 85.71 135.066 85.71 135.066 93.4727 135.066 c 128,-1,15
 101.234 135.066 101.234 135.066 106.729 129.572 c 128,-1,8
 112.223 124.079 112.223 124.079 112.223 116.316 c 128,-1,9
EndSplineSet
EndChar
StartChar: semicolon
Encoding: 59 59 28
Width: 207
GlyphClass: 2
Flags: W
HStem: 441.301 37.5<87.7908 114.252>
VStem: 82.2793 37.5<9.8854 205.293 446.821 473.282>
Fore
119.771 460.051 m 128,-1,1
 119.771 452.289 119.771 452.289 114.277 446.795 c 128,-1,2
 108.783 441.301 108.783 441.301 101.021 441.301 c 128,-1,3
 93.2588 441.301 93.2588 441.301 87.7656 446.795 c 128,-1,4
 82.2715 452.288 82.2715 452.288 82.2715 460.051 c 128,-1,5
 82.2715 467.813 82.2715 467.813 87.7656 473.308 c 128,-1,6
 93.2588 478.801 93.2588 478.801 101.021 478.801 c 128,-1,7
 108.783 478.801 108.783 478.801 114.277 473.307 c 128,-1,0
 119.771 467.813 119.771 467.813 119.771 460.051 c 128,-1,1
101.029 210.812 m 128,-1,9
 108.792 210.812 108.792 210.812 114.285 205.318 c 128,-1,10
 119.779 199.825 119.779 199.825 119.779 192.062 c 2,11,-1
 119.779 20.0625 l 2,12,13
 119.779 12.2998 119.779 12.2998 114.285 6.80664 c 128,-1,14
 108.792 1.3125 108.792 1.3125 101.029 1.3125 c 128,-1,15
 93.2676 1.3125 93.2676 1.3125 87.7734 6.80664 c 128,-1,16
 82.2793 12.3008 82.2793 12.3008 82.2793 20.0625 c 2,17,-1
 82.2793 192.062 l 2,18,19
 82.2793 199.824 82.2793 199.824 87.7734 205.318 c 128,-1,8
 93.2676 210.812 93.2676 210.812 101.029 210.812 c 128,-1,9
EndSplineSet
EndChar
StartChar: less
Encoding: 60 60 29
Width: 449
GlyphClass: 2
Flags: W
VStem: 16.5527 310.287<372.452 731.685>
Fore
22.6201 391.854 m 6,0,-1
 292.4 735.854 l 5,1,2
 292.492 735.845 292.492 735.845 292.553 735.974 c 132,-1,3
 292.613 736.103 292.613 736.103 292.65 736.166 c 4,4,5
 296.532 742.891 296.532 742.891 304.025 744.905 c 132,-1,6
 311.519 746.921 311.519 746.921 318.244 743.041 c 132,-1,7
 324.944 739.173 324.944 739.173 326.84 731.685 c 132,-1,8
 328.736 724.197 328.736 724.197 324.431 716.354 c 5,9,-1
 61 375.86 l 5,10,-1
 324.431 29.8848 l 6,11,12
 328.76 24.1992 328.76 24.1992 326.832 15.1338 c 4,13,14
 325.137 7.1582 325.137 7.1582 318.275 3.19727 c 132,-1,15
 311.551 -0.683594 311.551 -0.683594 304.041 1.33301 c 132,-1,16
 296.531 3.34863 296.531 3.34863 292.65 10.0723 c 4,17,18
 292.613 10.1367 292.613 10.1367 292.553 10.2646 c 4,19,-1
 292.4 10.3848 l 5,20,-1
 22.5889 354.354 l 6,21,22
 16.7373 361.813 16.7373 361.813 16.5527 372.452 c 4,23,24
 16.3555 383.865 16.3555 383.865 22.6201 391.854 c 6,0,-1
EndSplineSet
EndChar
StartChar: equal
Encoding: 61 61 30
Width: 505
GlyphClass: 2
Flags: W
HStem: 236.118 37.4365<66.982 79.9308 80.0684 398.375> 473.294 37.4365<66.982 79.9308 80.0684 402.3>
Fore
60.9121 491.98 m 128,-1,1
 60.9121 499.743 60.9121 499.743 66.4062 505.237 c 128,-1,2
 71.9004 510.73 71.9004 510.73 79.6621 510.73 c 0,3,4
 79.7373 510.731 79.7373 510.731 79.873 510.716 c 0,5,-1
 80.0684 510.794 l 1,6,-1
 392 510.794 l 1,7,8
 392.062 510.701 392.062 510.701 392.197 510.716 c 0,9,10
 400.168 510.73 400.168 510.73 405.662 505.237 c 128,-1,11
 411.156 499.743 411.156 499.743 411.156 491.98 c 128,-1,12
 411.156 484.247 411.156 484.247 405.516 478.771 c 128,-1,13
 399.875 473.294 399.875 473.294 391.125 473.294 c 2,14,-1
 80.9434 473.294 l 2,15,16
 72.8525 473.294 72.8525 473.294 66.8828 478.675 c 128,-1,0
 60.9121 484.057 60.9121 484.057 60.9121 491.98 c 128,-1,1
60.9121 254.805 m 128,-1,18
 60.9121 262.567 60.9121 262.567 66.4062 268.062 c 128,-1,19
 71.9004 273.555 71.9004 273.555 79.6621 273.555 c 0,20,21
 79.7373 273.556 79.7373 273.556 79.873 273.54 c 0,22,-1
 80.0684 273.618 l 1,23,-1
 392 273.618 l 1,24,25
 392.062 273.525 392.062 273.525 392.197 273.54 c 0,26,27
 400.168 273.555 400.168 273.555 405.662 268.062 c 128,-1,28
 411.156 262.567 411.156 262.567 411.156 254.805 c 128,-1,29
 411.156 247.071 411.156 247.071 402.486 241.535 c 128,-1,30
 394.002 236.118 394.002 236.118 391.125 236.118 c 2,31,-1
 80.9434 236.118 l 2,32,33
 72.8525 236.118 72.8525 236.118 66.8828 241.499 c 128,-1,17
 60.9121 246.881 60.9121 246.881 60.9121 254.805 c 128,-1,18
EndSplineSet
EndChar
StartChar: greater
Encoding: 62 62 31
Width: 451
GlyphClass: 2
Flags: W
VStem: 61.5908 310.287<365.452 724.685>
Fore
365.811 384.854 m 2,0,1
 372.075 376.865 372.075 376.865 371.878 365.452 c 0,2,3
 371.693 354.813 371.693 354.813 365.842 347.354 c 2,4,-1
 96.0303 3.38477 l 1,5,-1
 95.8779 3.26465 l 0,6,7
 95.8174 3.13672 95.8174 3.13672 95.7803 3.07227 c 0,8,9
 91.8994 -3.65137 91.8994 -3.65137 84.3896 -5.66699 c 128,-1,10
 76.8799 -7.68359 76.8799 -7.68359 70.1553 -3.80273 c 128,-1,11
 63.2939 0.158203 63.2939 0.158203 61.5986 8.13379 c 0,12,13
 59.6709 17.1992 59.6709 17.1992 64 22.8848 c 2,14,-1
 327.431 368.86 l 1,15,-1
 64 709.354 l 1,16,17
 59.6943 717.197 59.6943 717.197 61.5908 724.685 c 128,-1,18
 63.4863 732.173 63.4863 732.173 70.1865 736.041 c 128,-1,19
 76.9121 739.921 76.9121 739.921 84.4053 737.905 c 128,-1,20
 91.8984 735.891 91.8984 735.891 95.7803 729.166 c 0,21,22
 95.8174 729.103 95.8174 729.103 95.8779 728.974 c 128,-1,23
 95.9385 728.845 95.9385 728.845 96.0303 728.854 c 1,24,-1
 365.811 384.854 l 2,0,1
EndSplineSet
EndChar
StartChar: question
Encoding: 63 63 32
Width: 545
GlyphClass: 2
Flags: W
HStem: 7.12012 37.5<157.89 184.351> 678.406 37.2188<177.931 370.65>
VStem: 72.9102 34.1562<575.125 630.243> 152.379 36.6562<12.6399 39.1008 219.207 330.93> 404.815 35.8438<484.322 646.969>
Fore
256.879 715.625 m 4,0,1
 355.807 715.625 355.807 715.625 398.232 680.629 c 132,-1,2
 440.659 645.633 440.659 645.633 440.659 558.094 c 4,3,4
 440.659 468.582 440.659 468.582 402.618 434.197 c 132,-1,5
 364.577 399.812 364.577 399.812 291.628 399.812 c 4,6,7
 249.709 399.812 249.709 399.812 220.873 371.477 c 132,-1,8
 192.037 343.14 192.037 343.14 189.035 303.725 c 5,9,10
 189.879 301.008 189.879 301.008 189.879 232.438 c 4,11,12
 189.879 224.676 189.879 224.676 184.385 219.182 c 132,-1,13
 178.891 213.688 178.891 213.688 171.129 213.688 c 132,-1,14
 163.366 213.688 163.366 213.688 157.873 219.182 c 132,-1,15
 152.379 224.675 152.379 224.675 152.379 232.438 c 4,16,17
 152.379 306.838 152.379 306.838 152.973 308.264 c 6,18,19
 153.447 368.938 153.447 368.938 193.072 404.523 c 4,20,21
 229.306 437.061 229.306 437.061 297.003 440.531 c 4,22,23
 345.699 443.028 345.699 443.028 376.162 472.577 c 4,24,25
 404.107 499.709 404.107 499.709 404.815 551 c 4,26,27
 405.835 624.822 405.835 624.822 374.396 652.042 c 4,28,29
 343.977 678.406 343.977 678.406 255.066 678.406 c 4,30,31
 173.08 678.406 173.08 678.406 140.073 657.463 c 132,-1,32
 107.066 636.52 107.066 636.52 107.066 575.125 c 5,33,34
 101.449 567 101.449 567 91.6602 567 c 4,35,36
 83.8965 567 83.8965 567 78.4033 572.494 c 132,-1,37
 72.9102 577.987 72.9102 577.987 72.9102 585.75 c 4,38,39
 72.9102 619.422 72.9102 619.422 80 641.54 c 132,-1,40
 87.0889 663.657 87.0889 663.657 106.466 681.457 c 132,-1,41
 125.843 699.256 125.843 699.256 162.795 707.44 c 132,-1,42
 199.748 715.625 199.748 715.625 256.879 715.625 c 4,0,1
189.871 25.8701 m 132,-1,44
 189.871 18.1084 189.871 18.1084 184.377 12.6143 c 132,-1,45
 178.883 7.12012 178.883 7.12012 171.121 7.12012 c 132,-1,46
 163.358 7.12012 163.358 7.12012 157.865 12.6143 c 132,-1,47
 152.371 18.1074 152.371 18.1074 152.371 25.8701 c 132,-1,48
 152.371 33.6328 152.371 33.6328 157.865 39.127 c 132,-1,49
 163.358 44.6201 163.358 44.6201 171.121 44.6201 c 132,-1,50
 178.883 44.6201 178.883 44.6201 184.377 39.126 c 132,-1,43
 189.871 33.6328 189.871 33.6328 189.871 25.8701 c 132,-1,44
EndSplineSet
EndChar
StartChar: at
Encoding: 64 64 33
Width: 931
GlyphClass: 2
Flags: W
HStem: -92.4922 37.2188<624.686 716.94> -73.4609 34.1562<277.101 336.657> 23.6641 38.5<390.793 507.852> 439.258 37.2188<381.262 514.825> 614.445 35.8438<401.335 680.858>
VStem: 125.157 37.2188<179.724 366.035> 306.376 36<132.852 362.283> 563.813 37.5<16.0831 73.9352 111.382 360.15> 771.781 37.2188<121.686 494.039>
Fore
475.47 650.289 m 0,0,1
 655.512 650.289 655.512 650.289 732.756 553.183 c 0,2,3
 809 456.075 809 456.075 809 236.508 c 0,4,5
 809 163.479 809 163.479 802.268 107.925 c 0,6,7
 794.03 45.0603 794.03 45.0603 780.474 5.51172 c 0,8,9
 764.411 -41.3467 764.411 -41.3467 734.131 -66.5107 c 128,-1,10
 703.851 -91.6748 703.851 -91.6748 660.22 -92.4922 c 0,11,12
 622.607 -92.4922 622.607 -92.4922 596.714 -57.1387 c 128,-1,13
 570.82 -21.7852 570.82 -21.7852 565.47 22.5391 c 1,14,15
 562.218 27.7373 562.218 27.7373 563.472 44.7754 c 128,-1,16
 564.726 61.8145 564.726 61.8145 563.813 67.3828 c 1,17,18
 542.646 41.8838 542.646 41.8838 519.205 32.7734 c 128,-1,19
 495.764 23.6641 495.764 23.6641 455.47 23.6641 c 0,20,21
 388.872 23.6641 388.872 23.6641 347.624 82.1455 c 128,-1,22
 306.376 140.627 306.376 140.627 306.376 253.133 c 0,23,24
 306.376 361.568 306.376 361.568 346.616 419.022 c 128,-1,25
 386.855 476.477 386.855 476.477 453.938 476.477 c 0,26,27
 528.447 476.477 528.447 476.477 564.88 419.786 c 0,28,29
 601.086 363.319 601.086 363.319 601.313 262.32 c 2,30,-1
 601.813 40.3828 l 2,31,32
 601.887 7.87244 601.887 7.87244 617.141 -23.5293 c 0,33,34
 632.468 -55.2734 632.468 -55.2734 658.407 -55.2734 c 0,35,36
 771.781 -54.8633 771.781 -54.8633 771.781 234.695 c 0,37,38
 771.781 434.19 771.781 434.19 702.302 523.674 c 0,39,40
 631.823 614.445 631.823 614.445 468.375 614.445 c 0,41,42
 325.451 614.352 325.451 614.352 243.913 518.048 c 128,-1,43
 162.376 421.745 162.376 421.745 162.376 242.695 c 0,44,45
 162.376 186.351 162.376 186.351 184.788 121.641 c 128,-1,46
 207.2 56.9316 207.2 56.9316 249.022 8.81348 c 128,-1,47
 290.845 -39.3047 290.845 -39.3047 336.657 -39.3047 c 1,48,49
 344.783 -44.9229 344.783 -44.9229 344.781 -54.7109 c 0,50,51
 344.781 -62.4736 344.781 -62.4736 339.288 -67.9678 c 128,-1,52
 333.795 -73.4609 333.795 -73.4609 326.031 -73.4609 c 0,53,54
 278.299 -73.4609 278.299 -73.4609 238.181 -42.002 c 128,-1,55
 198.062 -10.5439 198.062 -10.5439 174.337 38.2871 c 128,-1,56
 150.613 87.1172 150.613 87.1172 137.886 140.896 c 128,-1,57
 125.157 194.674 125.157 194.674 125.157 244.508 c 0,58,59
 125.157 337.99 125.157 337.99 144.602 409.889 c 128,-1,60
 164.046 481.786 164.046 481.786 196.267 526.549 c 0,61,62
 229.276 571.312 229.276 571.312 273.921 599.765 c 0,63,64
 320.355 628.217 320.355 628.217 369.399 639.253 c 128,-1,65
 418.443 650.289 418.443 650.289 475.47 650.289 c 0,0,1
452.125 439.258 m 0,66,67
 397.615 439.258 397.615 439.258 369.995 388.177 c 128,-1,68
 342.376 337.095 342.376 337.095 342.376 253.133 c 0,69,70
 342.377 160.609 342.377 160.609 374.008 111.387 c 128,-1,71
 405.639 62.1641 405.639 62.1641 455.125 62.1641 c 0,72,73
 514.061 62.1641 514.061 62.1641 538.937 101.751 c 128,-1,74
 563.813 141.339 563.813 141.339 563.813 241.195 c 0,75,76
 563.813 332.699 563.813 332.699 532.085 385.979 c 128,-1,77
 500.355 439.258 500.355 439.258 452.125 439.258 c 0,66,67
EndSplineSet
EndChar
StartChar: bracketleft
Encoding: 91 91 60
Width: 357
GlyphClass: 2
Flags: W
HStem: -0.875 37.5<103 239.925> 705.781 37.4229<103 243.277>
VStem: 65.5938 37.4062<36.625 705.781>
Fore
84.3125 744.094 m 4,0,1
 87.1748 744.094 87.1748 744.094 89.7822 743.281 c 5,2,-1
 229.625 743.281 l 5,3,4
 229.688 743.188 229.688 743.188 229.823 743.204 c 4,5,6
 237.795 743.219 237.795 743.219 243.288 737.726 c 132,-1,7
 248.781 732.231 248.781 732.231 248.782 724.469 c 132,-1,8
 248.782 716.734 248.782 716.734 243.141 711.258 c 132,-1,9
 237.5 705.781 237.5 705.781 228.75 705.781 c 6,10,-1
 103 705.781 l 5,11,-1
 103 36.625 l 5,12,-1
 229.625 36.625 l 5,13,14
 229.688 36.5322 229.688 36.5322 229.822 36.5479 c 4,15,16
 237.794 36.5625 237.794 36.5625 243.287 31.0684 c 132,-1,17
 248.781 25.5752 248.781 25.5752 248.782 17.8125 c 132,-1,18
 248.782 10.0781 248.782 10.0781 243.141 4.60156 c 132,-1,19
 237.5 -0.875 237.5 -0.875 228.75 -0.875 c 6,20,-1
 84.5625 -0.875 l 6,21,22
 76.4717 -0.875 76.4717 -0.875 70.502 4.50684 c 132,-1,23
 64.5312 9.88867 64.5312 9.88867 64.5322 17.8125 c 4,24,25
 64.5322 20.9131 64.5322 20.9131 65.5938 23.9688 c 5,26,-1
 65.5938 718.5 l 5,27,28
 64.5312 721.456 64.5312 721.456 64.5322 724.469 c 4,29,30
 64.5322 733.532 64.5322 733.532 71.6875 739.188 c 4,31,32
 77.0645 744.094 77.0645 744.094 84.3125 744.094 c 4,0,1
EndSplineSet
EndChar
StartChar: backslash
Encoding: 92 92 61
Width: 592
GlyphClass: 2
Flags: W
VStem: 75.8613 452.205<25.6348 674.805>
Fore
524.57 -0.985352 m 1,0,1
 518.01 -5.70996 518.01 -5.70996 510.235 -4.20312 c 128,-1,2
 502.461 -2.69629 502.461 -2.69629 497.591 3.76562 c 2,3,-1
 80.1309 659.88 l 2,4,5
 74.8994 667.139 74.8994 667.139 75.8613 674.805 c 128,-1,6
 76.8232 682.47 76.8232 682.47 83 687.124 c 128,-1,7
 89.2002 691.795 89.2002 691.795 96.8936 690.714 c 128,-1,8
 104.587 689.633 104.587 689.633 109.259 683.434 c 2,9,-1
 528.066 25.6348 l 2,10,11
 535.854 13.0928 535.854 13.0928 524.57 -0.985352 c 1,0,1
EndSplineSet
EndChar
StartChar: bracketright
Encoding: 93 93 62
Width: 357
GlyphClass: 2
Flags: W
HStem: -0.875 37.5<93.1819 220> 705.781 37.5<93.181 220>
VStem: 220 37.4062<36.625 705.781>
Fore
238.688 744.094 m 0,0,1
 245.936 744.094 245.936 744.094 251.312 739.188 c 0,2,3
 258.468 733.532 258.468 733.532 258.468 724.469 c 0,4,5
 258.469 721.456 258.469 721.456 257.406 718.5 c 1,6,-1
 257.406 23.9688 l 1,7,8
 258.468 20.9131 258.468 20.9131 258.468 17.8125 c 0,9,10
 258.469 9.88867 258.469 9.88867 252.498 4.50684 c 128,-1,11
 246.528 -0.875 246.528 -0.875 238.438 -0.875 c 2,12,-1
 94.25 -0.875 l 2,13,14
 85.5 -0.875 85.5 -0.875 79.8594 4.60156 c 128,-1,15
 74.2178 10.0781 74.2178 10.0781 74.2178 17.8125 c 128,-1,16
 74.2188 25.5752 74.2188 25.5752 79.7129 31.0684 c 128,-1,17
 85.2061 36.5625 85.2061 36.5625 93.1777 36.5479 c 0,18,19
 93.3125 36.5322 93.3125 36.5322 93.375 36.625 c 1,20,-1
 220 36.625 l 1,21,-1
 220 705.781 l 1,22,-1
 94.25 705.781 l 2,23,24
 85.5 705.781 85.5 705.781 79.8594 711.258 c 128,-1,25
 74.2178 716.734 74.2178 716.734 74.2178 724.469 c 128,-1,26
 74.2188 732.231 74.2188 732.231 79.7119 737.726 c 128,-1,27
 85.2051 743.219 85.2051 743.219 93.1768 743.204 c 0,28,29
 93.3115 743.188 93.3115 743.188 93.375 743.281 c 1,30,-1
 233.218 743.281 l 1,31,32
 235.825 744.094 235.825 744.094 238.688 744.094 c 0,0,1
EndSplineSet
EndChar
StartChar: asciicircum
Encoding: 94 94 63
Width: 457
GlyphClass: 2
Flags: W
HStem: 546.354 252.288<263.262 490.494>
VStem: 30.1426 473.572<559.427 569.169 569.153 569.169>
Fore
282.663 792.576 m 1,0,-1
 494.663 580.795 l 1,1,2
 494.654 580.702 494.654 580.702 494.783 580.643 c 0,3,4
 501.699 576.663 501.699 576.663 503.715 569.169 c 128,-1,5
 505.73 561.675 505.73 561.675 501.851 554.951 c 128,-1,6
 497.982 548.251 497.982 548.251 490.494 546.354 c 128,-1,7
 483.006 544.458 483.006 544.458 475.163 548.764 c 1,8,-1
 266.67 754.195 l 1,9,-1
 58.6943 548.764 l 1,10,11
 51.9189 544.667 51.9189 544.667 43.9434 546.363 c 128,-1,12
 35.9678 548.059 35.9678 548.059 32.0068 554.92 c 128,-1,13
 28.126 561.644 28.126 561.644 30.1426 569.153 c 128,-1,14
 32.1592 576.663 32.1592 576.663 38.8818 580.545 c 0,15,16
 39.207 580.705 39.207 580.705 39.2568 580.731 c 1,17,-1
 245.163 792.606 l 2,18,19
 250.819 798.427 250.819 798.427 263.262 798.643 c 0,20,21
 274.182 798.832 274.182 798.832 282.663 792.576 c 1,0,-1
EndSplineSet
EndChar
StartChar: underscore
Encoding: 95 95 64
Width: 527
GlyphClass: 2
Flags: W
HStem: -0.282227 37.4062<51.4887 452.234>
Fore
32.8467 18.4053 m 128,-1,1
 32.8467 26.168 32.8467 26.168 38.3408 31.6611 c 128,-1,2
 43.835 37.1553 43.835 37.1553 51.5967 37.1553 c 0,3,4
 51.9404 37.125 51.9404 37.125 52.0029 37.124 c 1,5,-1
 441.935 37.2178 l 1,6,7
 441.998 37.125 441.998 37.125 442.133 37.1406 c 128,-1,8
 442.268 37.1562 442.268 37.1562 442.341 37.1553 c 0,9,10
 450.104 37.1553 450.104 37.1553 455.598 31.6621 c 128,-1,11
 461.091 26.1689 461.091 26.1689 461.091 18.4053 c 128,-1,12
 461.091 10.6709 461.091 10.6709 455.45 5.19434 c 128,-1,13
 449.81 -0.282227 449.81 -0.282227 441.06 -0.282227 c 2,14,-1
 52.8779 -0.282227 l 2,15,16
 44.7871 -0.282227 44.7871 -0.282227 38.8164 5.09961 c 128,-1,0
 32.8467 10.4805 32.8467 10.4805 32.8467 18.4053 c 128,-1,1
EndSplineSet
EndChar
StartChar: grave
Encoding: 96 96 65
Width: 381
GlyphClass: 2
Flags: W
HStem: 527.03 185.484<90.3965 284.852>
VStem: 73.4824 228.926<547.077 692.281>
Fore
298.095 533.391 m 128,-1,1
 293.002 527.319 293.002 527.319 284.852 527.03 c 128,-1,2
 276.701 526.741 276.701 526.741 270.739 531.949 c 2,3,-1
 81 678.701 l 2,4,5
 74.2979 684.324 74.2979 684.324 73.4824 692.281 c 128,-1,6
 72.667 700.238 72.667 700.238 77.666 705.891 c 0,7,8
 82.6562 711.838 82.6562 711.838 90.3965 712.515 c 128,-1,9
 98.1367 713.192 98.1367 713.192 104.231 708.057 c 0,10,11
 104.325 707.958 104.325 707.958 104.435 707.989 c 1,12,-1
 295.454 560.041 l 1,13,14
 295.503 560.002 295.503 560.002 295.784 559.807 c 0,15,16
 301.73 554.815 301.73 554.815 302.408 547.077 c 128,-1,0
 303.086 539.339 303.086 539.339 298.095 533.391 c 128,-1,1
EndSplineSet
EndChar
StartChar: a
Encoding: 97 97 66
Width: 381
GlyphClass: 2
Flags: W
HStem: -3.42676 38.5<82.5958 236.976> 416.167 37.2188<106.363 261.508>
VStem: 34.5 36<72.9022 352.712> 292.938 37.5<-6.91391 40.292 84.2898 361.601>
Fore
183.062 453.386 m 0,0,1
 266.424 453.386 266.424 453.386 298.431 403.162 c 128,-1,2
 330.438 352.938 330.438 352.938 330.438 235.229 c 2,3,-1
 330.438 4.26074 l 2,4,5
 330.438 -4.48926 330.438 -4.48926 324.961 -10.1299 c 128,-1,6
 319.484 -15.7705 319.484 -15.7705 311.75 -15.7705 c 128,-1,7
 303.986 -15.7705 303.986 -15.7705 298.493 -10.2773 c 128,-1,8
 293 -4.78418 293 -4.78418 293 2.97949 c 2,9,-1
 292.938 40.292 l 1,10,11
 271.771 14.793 271.771 14.793 248.329 5.68262 c 128,-1,12
 224.888 -3.42676 224.888 -3.42676 184.594 -3.42676 c 0,13,14
 106.134 -3.42676 106.134 -3.42676 70.3174 52.4072 c 128,-1,15
 34.5 108.242 34.5 108.242 34.5 226.042 c 128,-1,16
 34.501 344.013 34.501 344.013 70.5195 398.699 c 128,-1,17
 106.538 453.386 106.538 453.386 183.062 453.386 c 0,0,1
181.25 416.167 m 0,18,19
 123.645 416.167 123.645 416.167 97.0723 369.823 c 128,-1,20
 70.5 323.48 70.5 323.48 70.5 226.042 c 0,21,22
 70.501 35.0732 70.501 35.0732 184.25 35.0732 c 0,23,24
 243.186 35.0732 243.186 35.0732 268.062 74.6602 c 128,-1,25
 292.938 114.247 292.938 114.247 292.938 214.104 c 0,26,27
 292.938 327.563 292.938 327.563 267.962 371.865 c 128,-1,28
 242.987 416.167 242.987 416.167 181.25 416.167 c 0,18,19
EndSplineSet
KernsSLIFO: 75 -48 0 0 15 -84 0 0 13 -388 0 0
EndChar
StartChar: b
Encoding: 98 98 67
Width: 403
GlyphClass: 2
Flags: W
HStem: -4.03418 37.2188<120.093 296.271> 430.278 38.5<150.383 292.537>
VStem: 50.0625 37.5<92.9511 348.123 425.06 646.265> 326 36<97.1442 363.157>
Fore
205.438 -4.03418 m 4,0,1
 121.916 -4.03418 121.916 -4.03418 86.7109 49.8818 c 132,-1,2
 51.5068 103.798 51.5068 103.798 50.0625 222.122 c 6,3,-1
 50.0625 635.091 l 6,4,5
 50.0625 643.84 50.0625 643.84 55.5391 649.481 c 132,-1,6
 61.0166 655.122 61.0166 655.122 68.75 655.122 c 132,-1,7
 76.5137 655.122 76.5137 655.122 82.0068 649.629 c 132,-1,8
 87.5 644.136 87.5 644.136 87.5 636.372 c 6,9,-1
 87.4688 635.966 l 5,10,-1
 87.5625 425.06 l 5,11,12
 108.658 450.474 108.658 450.474 134.128 459.626 c 132,-1,13
 159.598 468.778 159.598 468.778 203.906 468.778 c 4,14,15
 289.012 468.778 289.012 468.778 325.506 410.341 c 132,-1,16
 362 351.904 362 351.904 362 231.31 c 4,17,18
 361.999 110.995 361.999 110.995 324.934 53.4805 c 132,-1,19
 287.867 -4.03418 287.867 -4.03418 205.438 -4.03418 c 4,0,1
207.25 33.1846 m 4,20,21
 275.728 33.1846 275.728 33.1846 300.863 80.6445 c 132,-1,22
 326 128.105 326 128.105 326 231.31 c 4,23,24
 325.999 332.73 325.999 332.73 299.081 381.505 c 132,-1,25
 272.163 430.278 272.163 430.278 204.25 430.278 c 4,26,27
 166.798 430.278 166.798 430.278 145.304 423.075 c 132,-1,28
 123.81 415.872 123.81 415.872 110.182 394.035 c 132,-1,29
 96.5547 372.197 96.5547 372.197 92.0586 337.741 c 132,-1,30
 87.5625 303.285 87.5625 303.285 87.5625 243.247 c 4,31,32
 87.5625 127.635 87.5625 127.635 113.885 80.4092 c 132,-1,33
 140.206 33.1846 140.206 33.1846 207.25 33.1846 c 4,20,21
EndSplineSet
KernsSLIFO: 75 -46 0 0 15 -108 0 0 13 -388 0 0
EndChar
StartChar: c
Encoding: 99 99 68
Width: 351
GlyphClass: 2
Flags: W
HStem: -5.24121 37.2188<160.96 231.773> 433.384 37.2188<114.615 231.773>
VStem: 43 35.8438<139.597 366.9>
Fore
192.78 470.603 m 0,0,1
 217.714 470.603 217.714 470.603 236.687 464.642 c 128,-1,2
 255.659 458.68 255.659 458.68 266.883 449.025 c 128,-1,3
 278.106 439.372 278.106 439.372 288.841 427.16 c 128,-1,4
 299.575 414.947 299.575 414.947 308.03 402.446 c 0,5,6
 310.75 397.979 310.75 397.979 310.75 392.728 c 0,7,8
 310.75 384.966 310.75 384.966 305.256 379.472 c 128,-1,9
 299.762 373.978 299.762 373.978 292 373.978 c 0,10,11
 282.21 373.978 282.21 373.978 276.594 382.103 c 0,12,13
 260.279 408.341 260.279 408.341 241.736 420.577 c 128,-1,14
 223.193 432.813 223.193 432.813 194.594 433.384 c 0,15,16
 133.071 433.384 133.071 433.384 105.957 384.112 c 128,-1,17
 78.8438 334.841 78.8438 334.841 78.8438 227.978 c 0,18,19
 78.9766 201.983 78.9766 201.983 79.3242 187.825 c 128,-1,20
 79.6709 173.667 79.6709 173.667 81.8926 149.989 c 128,-1,21
 84.1133 126.312 84.1133 126.312 88.3369 112.762 c 128,-1,22
 92.5605 99.2109 92.5605 99.2109 100.975 82.0693 c 128,-1,23
 109.39 64.9287 109.39 64.9287 121.457 55.6953 c 128,-1,24
 133.523 46.4629 133.523 46.4629 152.098 39.5684 c 128,-1,25
 170.673 32.6729 170.673 32.6729 194.594 31.9775 c 0,26,27
 223.193 32.5479 223.193 32.5479 241.736 44.7842 c 128,-1,28
 260.279 57.0205 260.279 57.0205 276.594 83.2588 c 0,29,30
 282.21 91.3838 282.21 91.3838 292 91.3838 c 0,31,32
 299.762 91.3838 299.762 91.3838 305.256 85.8896 c 128,-1,33
 310.75 80.3955 310.75 80.3955 310.75 72.6338 c 0,34,35
 310.75 67.3828 310.75 67.3828 308.03 62.915 c 0,36,37
 299.575 50.4141 299.575 50.4141 288.841 38.2012 c 128,-1,38
 278.106 25.9893 278.106 25.9893 266.883 16.3359 c 128,-1,39
 255.659 6.68164 255.659 6.68164 236.687 0.719727 c 128,-1,40
 217.714 -5.24121 217.714 -5.24121 192.78 -5.24121 c 0,41,42
 116.043 -5.24121 116.043 -5.24121 79.5215 48.7949 c 128,-1,43
 43 102.831 43 102.831 43 235.071 c 0,44,45
 43 358.199 43 358.199 78.8555 414.401 c 128,-1,46
 114.711 470.603 114.711 470.603 192.78 470.603 c 0,0,1
EndSplineSet
KernsSLIFO: 75 -46 0 0 15 -82 0 0 14 -210 0 0 13 -386 0 0
EndChar
StartChar: d
Encoding: 100 100 69
Width: 403
GlyphClass: 2
Flags: W
HStem: -4.03418 37.2188<107.729 283.907> 430.278 38.5<111.463 253.617>
VStem: 42 36<97.1442 363.157> 316.438 37.5<92.9511 348.123 425.06 646.265>
Fore
198.562 -4.03418 m 0,0,1
 116.133 -4.03418 116.133 -4.03418 79.0664 53.4805 c 128,-1,2
 42.001 110.995 42.001 110.995 42 231.31 c 0,3,4
 42 351.904 42 351.904 78.4941 410.341 c 128,-1,5
 114.988 468.778 114.988 468.778 200.094 468.778 c 0,6,7
 244.402 468.778 244.402 468.778 269.872 459.626 c 128,-1,8
 295.342 450.474 295.342 450.474 316.438 425.06 c 1,9,-1
 316.531 635.966 l 1,10,-1
 316.5 636.372 l 2,11,12
 316.5 644.136 316.5 644.136 321.993 649.629 c 128,-1,13
 327.486 655.122 327.486 655.122 335.25 655.122 c 128,-1,14
 342.983 655.122 342.983 655.122 348.461 649.481 c 128,-1,15
 353.938 643.84 353.938 643.84 353.938 635.091 c 2,16,-1
 353.938 222.122 l 2,17,18
 352.493 103.798 352.493 103.798 317.289 49.8818 c 128,-1,19
 282.084 -4.03418 282.084 -4.03418 198.562 -4.03418 c 0,0,1
196.75 33.1846 m 0,20,21
 263.794 33.1846 263.794 33.1846 290.115 80.4092 c 128,-1,22
 316.438 127.635 316.438 127.635 316.438 243.247 c 0,23,24
 316.438 303.285 316.438 303.285 311.941 337.741 c 128,-1,25
 307.445 372.197 307.445 372.197 293.818 394.035 c 128,-1,26
 280.19 415.872 280.19 415.872 258.696 423.075 c 128,-1,27
 237.202 430.278 237.202 430.278 199.75 430.278 c 0,28,29
 131.837 430.278 131.837 430.278 104.919 381.505 c 128,-1,30
 78.001 332.73 78.001 332.73 78 231.31 c 0,31,32
 78 128.105 78 128.105 103.137 80.6445 c 128,-1,33
 128.272 33.1846 128.272 33.1846 196.75 33.1846 c 0,20,21
EndSplineSet
KernsSLIFO: 75 -52 0 0 15 -112 0 0 13 -394 0 0
EndChar
StartChar: e
Encoding: 101 101 70
Width: 401
GlyphClass: 2
Flags: W
HStem: -5.24121 37.2188<132.406 251.487> 224.696 36.875<79.0312 315> 437.384 37.2188<122.466 234.656>
VStem: 41 35.9375<116.476 224.696 261.571 367.882> 315 35.8125<242.759 313.888>
Fore
190.781 474.603 m 0,0,1
 236.012 474.603 236.012 474.603 268.396 455.799 c 128,-1,2
 300.782 436.994 300.782 436.994 318.129 403.235 c 128,-1,3
 335.476 369.478 335.476 369.478 343.145 330.212 c 128,-1,4
 350.812 290.945 350.812 290.945 350.812 242.759 c 0,5,6
 350.812 235.024 350.812 235.024 345.172 229.548 c 128,-1,7
 339.53 224.071 339.53 224.071 330.781 224.071 c 2,8,-1
 76.9375 224.696 l 1,9,10
 76.9375 141.45 76.9375 141.45 113.693 86.7139 c 128,-1,11
 150.449 31.9775 150.449 31.9775 210.593 31.9775 c 0,12,13
 242.05 32.6055 242.05 32.6055 270.877 45.958 c 128,-1,14
 299.703 59.3115 299.703 59.3115 314.593 83.2588 c 0,15,16
 320.214 91.3838 320.214 91.3838 330 91.3838 c 0,17,18
 337.763 91.3838 337.763 91.3838 343.256 85.8896 c 128,-1,19
 348.749 80.3965 348.749 80.3965 348.75 72.6338 c 0,20,21
 348.75 67.3838 348.75 67.3838 346.031 62.915 c 0,22,23
 292.521 -5.24121 292.521 -5.24121 208.781 -5.24121 c 0,24,25
 132.971 -5.24121 132.971 -5.24121 86.9854 57.2939 c 128,-1,26
 41 119.829 41 119.829 41 235.071 c 0,27,28
 41 355.623 41 355.623 80 415.113 c 128,-1,29
 119 474.603 119 474.603 190.781 474.603 c 0,0,1
192.593 437.384 m 0,30,31
 138.649 437.384 138.649 437.384 108.84 390.366 c 128,-1,32
 79.0312 343.349 79.0312 343.349 79.0312 261.571 c 1,33,-1
 315 261.571 l 1,34,35
 315 292.764 315 292.764 308.34 322.34 c 128,-1,36
 301.679 351.915 301.679 351.915 288.013 378.485 c 128,-1,37
 274.347 405.057 274.347 405.057 249.648 421.221 c 128,-1,38
 224.949 437.384 224.949 437.384 192.593 437.384 c 0,30,31
EndSplineSet
KernsSLIFO: 75 -52 0 0 15 -86 0 0 13 -390 0 0
EndChar
StartChar: f
Encoding: 102 102 71
Width: 321
GlyphClass: 2
Flags: W
HStem: 411.478 37.5<55.8857 102.781 139.031 268.518> 619.415 37.2188<156.183 239.293>
VStem: 103.031 35.9385<-0.249619 411.478 448.978 591.307>
Fore
196.813 656.634 m 0,0,1
 224.689 656.634 224.689 656.634 239.712 652.227 c 128,-1,2
 254.733 647.819 254.733 647.819 272.345 636.978 c 1,3,4
 278.781 629.729 278.781 629.729 278.781 620.759 c 0,5,6
 278.781 612.996 278.781 612.996 273.288 607.503 c 128,-1,7
 267.795 602.009 267.795 602.009 260.031 602.009 c 128,-1,8
 252.211 602.009 252.211 602.009 248.313 607.04 c 1,9,10
 229.908 619.415 229.908 619.415 198.625 619.415 c 0,11,12
 165.978 619.415 165.978 619.415 152.474 594.639 c 128,-1,13
 138.925 569.776 138.925 569.776 138.97 498.009 c 2,14,-1
 139 448.978 l 1,15,-1
 258.22 448.978 l 1,16,17
 258.283 448.885 258.283 448.885 258.418 448.9 c 0,18,19
 266.388 448.915 266.388 448.915 271.882 443.422 c 128,-1,20
 277.376 437.928 277.376 437.928 277.375 430.165 c 128,-1,21
 277.375 422.431 277.375 422.431 271.734 416.954 c 128,-1,22
 266.094 411.478 266.094 411.478 257.345 411.478 c 2,23,-1
 139.031 411.478 l 1,24,-1
 139.25 10.04 l 1,25,-1
 139.188 9.63379 l 1,26,27
 139.188 1.87109 139.188 1.87109 133.694 -3.62305 c 128,-1,28
 128.201 -9.11621 128.201 -9.11621 120.438 -9.11621 c 128,-1,29
 112.704 -9.11621 112.704 -9.11621 107.228 -3.47559 c 128,-1,30
 101.728 2.19067 101.728 2.19067 101.75 10.915 c 2,31,-1
 102.781 411.478 l 1,32,-1
 57.1572 411.478 l 2,33,34
 49.0654 411.478 49.0654 411.478 43.0947 416.859 c 128,-1,35
 37.124 422.241 37.124 422.241 37.125 430.165 c 128,-1,36
 37.125 437.929 37.125 437.929 42.6182 443.422 c 128,-1,37
 48.1113 448.915 48.1113 448.915 55.875 448.915 c 0,38,39
 56.2188 448.885 56.2188 448.885 56.2812 448.884 c 1,40,-1
 102.875 448.978 l 1,41,-1
 103.031 505.103 l 2,42,43
 103.268 590.123 103.268 590.123 125.881 623.204 c 0,44,45
 148.73 656.634 148.73 656.634 196.813 656.634 c 0,0,1
EndSplineSet
KernsSLIFO: 75 -42 0 0 15 -218 0 0 14 -118 0 0 13 -520 0 0
EndChar
StartChar: g
Encoding: 103 103 72
Width: 403
GlyphClass: 2
Flags: W
HStem: -191.294 37.2188<149.653 294.206> 0.456055 37.2188<107.729 254.488> 434.769 38.5<111.464 274.483>
VStem: 42 36<101.634 367.647> 316.281 35.7812<-118.228 60.0186 205.609 321.14>
Fore
194.281 -191.294 m 0,0,1
 169.278 -191.294 169.278 -191.294 149.92 -186.071 c 128,-1,2
 130.562 -180.849 130.562 -180.849 115.384 -168.979 c 128,-1,3
 100.206 -157.107 100.206 -157.107 92.2666 -148.59 c 128,-1,4
 84.3271 -140.073 84.3271 -140.073 71.0312 -123.138 c 0,5,6
 68.3115 -118.667 68.3115 -118.667 68.3125 -113.419 c 0,7,8
 68.3125 -105.656 68.3125 -105.656 73.8057 -100.162 c 128,-1,9
 79.2988 -94.6689 79.2988 -94.6689 87.0625 -94.6689 c 0,10,11
 96.8525 -94.6689 96.8525 -94.6689 102.47 -102.794 c 0,12,13
 133.624 -152.901 133.624 -152.901 192.47 -154.075 c 0,14,15
 316.283 -154.075 316.283 -154.075 316.281 3.2998 c 2,16,-1
 316.22 5.33105 l 1,17,-1
 316.125 60.0186 l 1,18,19
 295.344 28.9082 295.344 28.9082 268.463 14.6816 c 128,-1,20
 241.582 0.456055 241.582 0.456055 198.562 0.456055 c 0,21,22
 116.132 0.456055 116.132 0.456055 79.0664 57.9707 c 128,-1,23
 42 115.484 42 115.484 42 235.8 c 0,24,25
 42 356.395 42 356.395 78.4941 414.831 c 128,-1,26
 114.988 473.269 114.988 473.269 200.094 473.269 c 0,27,28
 276.92 473.269 276.92 473.269 312.745 423.692 c 128,-1,29
 348.57 374.116 348.57 374.116 353.375 265.769 c 2,30,-1
 352.062 -1.7627 l 2,31,32
 352.062 -91.3516 352.062 -91.3516 311.604 -141.322 c 128,-1,33
 271.146 -191.294 271.146 -191.294 194.281 -191.294 c 0,0,1
196.75 37.6748 m 0,34,35
 256.481 37.6748 256.481 37.6748 282.975 73.3193 c 128,-1,36
 309.468 108.964 309.468 108.964 316.125 187.8 c 2,37,-1
 317.031 269.144 l 2,38,39
 311.858 354.793 311.858 354.793 284.548 394.78 c 128,-1,40
 257.237 434.769 257.237 434.769 199.75 434.769 c 0,41,42
 131.838 434.769 131.838 434.769 104.919 385.994 c 128,-1,43
 78 337.221 78 337.221 78 235.8 c 0,44,45
 78 132.596 78 132.596 103.137 85.1348 c 128,-1,46
 128.272 37.6748 128.272 37.6748 196.75 37.6748 c 0,34,35
EndSplineSet
KernsSLIFO: 75 62 0 0 15 -88 0 0 13 -392 0 0
EndChar
StartChar: h
Encoding: 104 104 73
Width: 409
GlyphClass: 2
Flags: W
HStem: 431.384 37.2188<134.535 293.966>
VStem: 53.5947 37.4053<5.83413 329.435 414.634 641.436> 333.438 37.5<5.63539 212.225>
Fore
72.2822 650.009 m 128,-1,1
 80.0459 650.009 80.0459 650.009 85.5391 644.515 c 128,-1,2
 91.0322 639.021 91.0322 639.021 91.0322 631.259 c 2,3,-1
 91 630.853 l 1,4,-1
 91.0947 414.634 l 1,5,6
 126.236 468.603 126.236 468.603 212.032 468.603 c 0,7,8
 286.252 468.603 286.252 468.603 327.377 419.943 c 128,-1,9
 368.502 371.284 368.502 371.284 368.5 283.54 c 2,10,-1
 370.938 16.1338 l 1,11,-1
 370.877 15.7275 l 1,12,13
 370.877 7.96484 370.877 7.96484 365.383 2.4707 c 128,-1,14
 359.89 -3.02246 359.89 -3.02246 352.127 -3.02246 c 128,-1,15
 344.393 -3.02246 344.393 -3.02246 338.916 2.61816 c 128,-1,16
 333.439 8.25879 333.439 8.25879 333.438 17.0088 c 2,17,-1
 333.438 272.415 l 2,18,19
 328.253 354.442 328.253 354.442 301.865 392.913 c 128,-1,20
 275.477 431.384 275.477 431.384 213.845 431.384 c 0,21,22
 152.837 431.384 152.837 431.384 125.396 394.271 c 128,-1,23
 97.9561 357.16 97.9561 357.16 92.0322 276.009 c 2,24,-1
 92.0947 273.978 l 1,25,-1
 92.1885 16.1338 l 1,26,-1
 92.127 15.7275 l 1,27,28
 92.127 7.96484 92.127 7.96484 86.6328 2.4707 c 128,-1,29
 81.1396 -3.02246 81.1396 -3.02246 73.377 -3.02246 c 0,30,31
 72.9219 -2.99316 72.9219 -2.99316 72.8447 -2.99121 c 128,-1,32
 72.7686 -2.99316 72.7686 -2.99316 72.5781 -3.00781 c 0,33,34
 64.5479 -3.02246 64.5479 -3.02246 59.0723 2.61816 c 128,-1,35
 53.5957 8.25879 53.5957 8.25879 53.5947 17.0088 c 2,36,-1
 53.5947 629.978 l 2,37,38
 53.5947 638.069 53.5947 638.069 58.9766 644.039 c 128,-1,0
 64.3574 650.009 64.3574 650.009 72.2822 650.009 c 128,-1,1
EndSplineSet
KernsSLIFO: 75 -50 0 0 15 -84 0 0 13 -388 0 0
EndChar
StartChar: i
Encoding: 105 105 74
Width: 135
GlyphClass: 2
Flags: W
HStem: 626.684 37.5<56.3186 82.7796>
VStem: 52.0635 37.4053<5.83413 461.436 632.203 658.664>
Fore
70.75 470.009 m 128,-1,1
 78.5137 470.009 78.5137 470.009 84.0068 464.515 c 128,-1,2
 89.5 459.021 89.5 459.021 89.5 451.259 c 2,3,-1
 89.4688 450.853 l 1,4,-1
 89.5635 16.1338 l 1,5,-1
 89.5 15.7275 l 1,6,7
 89.5 7.96484 89.5 7.96484 84.0068 2.47168 c 128,-1,8
 78.5137 -3.02246 78.5137 -3.02246 70.75 -3.02246 c 128,-1,9
 63.0156 -3.02246 63.0156 -3.02246 57.5391 2.61816 c 128,-1,10
 52.0635 8.25879 52.0635 8.25879 52.0635 17.0088 c 2,11,-1
 52.0635 449.978 l 2,12,13
 52.0635 458.068 52.0635 458.068 57.4453 464.039 c 128,-1,0
 62.8262 470.009 62.8262 470.009 70.75 470.009 c 128,-1,1
88.2988 645.434 m 128,-1,15
 88.2988 637.671 88.2988 637.671 82.8047 632.177 c 128,-1,16
 77.3115 626.684 77.3115 626.684 69.5488 626.684 c 128,-1,17
 61.7871 626.684 61.7871 626.684 56.293 632.178 c 128,-1,18
 50.7988 637.672 50.7988 637.672 50.7988 645.434 c 128,-1,19
 50.7988 653.196 50.7988 653.196 56.293 658.689 c 128,-1,20
 61.7871 664.184 61.7871 664.184 69.5488 664.184 c 128,-1,21
 77.3125 664.184 77.3125 664.184 82.8057 658.69 c 128,-1,14
 88.2988 653.197 88.2988 653.197 88.2988 645.434 c 128,-1,15
EndSplineSet
KernsSLIFO: 75 -52 0 0 15 -88 0 0 13 -392 0 0
EndChar
StartChar: j
Encoding: 106 106 75
Width: 201
GlyphClass: 2
Flags: W
HStem: -190.704 37.2197<10.3061 89.9437> 626.684 37.5<108.492 134.953>
VStem: 104.062 35.9375<-126.899 466.19 632.203 658.664>
Fore
50.2188 -190.704 m 0,0,1
 22.585 -190.704 22.585 -190.704 8.65039 -186.427 c 128,-1,2
 -5.28516 -182.149 -5.28516 -182.149 -23.3154 -171.05 c 1,3,4
 -29.75 -163.804 -29.75 -163.804 -29.75 -154.829 c 0,5,6
 -29.75 -147.066 -29.75 -147.066 -24.2568 -141.572 c 128,-1,7
 -18.7637 -136.079 -18.7637 -136.079 -11 -136.079 c 128,-1,8
 -3.20508 -136.079 -3.20508 -136.079 0.69043 -141.107 c 1,9,10
 19.0986 -153.484 19.0986 -153.484 48.4072 -153.484 c 0,11,12
 80.3584 -153.484 80.3584 -153.484 92.2109 -129.251 c 128,-1,13
 104.062 -105.018 104.062 -105.018 104.062 -32.0791 c 2,14,-1
 103.781 455.891 l 1,15,-1
 103.844 456.296 l 1,16,17
 103.844 464.059 103.844 464.059 109.338 469.552 c 128,-1,18
 114.832 475.046 114.832 475.046 122.594 475.046 c 128,-1,19
 130.328 475.046 130.328 475.046 135.805 469.406 c 128,-1,20
 141.28 463.766 141.28 463.766 141.281 455.016 c 2,21,-1
 140 -39.1719 l 2,22,23
 140 -124.595 140 -124.595 118.834 -157.649 c 128,-1,24
 97.668 -190.704 97.668 -190.704 50.2188 -190.704 c 0,0,1
140.473 645.434 m 128,-1,26
 140.473 637.671 140.473 637.671 134.979 632.177 c 128,-1,27
 129.485 626.684 129.485 626.684 121.723 626.684 c 128,-1,28
 113.961 626.684 113.961 626.684 108.467 632.178 c 128,-1,29
 102.973 637.672 102.973 637.672 102.973 645.434 c 128,-1,30
 102.973 653.196 102.973 653.196 108.467 658.689 c 128,-1,31
 113.961 664.184 113.961 664.184 121.723 664.184 c 128,-1,32
 129.486 664.184 129.486 664.184 134.979 658.69 c 128,-1,25
 140.473 653.197 140.473 653.197 140.473 645.434 c 128,-1,26
EndSplineSet
KernsSLIFO: 75 64 0 0 28 -40 0 0 15 -100 0 0 13 -404 0 0
EndChar
StartChar: k
Encoding: 107 107 76
Width: 367
GlyphClass: 2
Flags: W
VStem: 41.5303 37.4062<3.83413 199.29 256.509 657.436>
Fore
60.2178 666.009 m 128,-1,1
 67.9805 666.009 67.9805 666.009 73.4746 660.515 c 128,-1,2
 78.9678 655.021 78.9678 655.021 78.9678 647.259 c 2,3,-1
 78.9365 646.853 l 1,4,-1
 79 256.509 l 1,5,-1
 312.187 489.915 l 2,6,7
 317.868 495.208 317.868 495.208 325.629 494.932 c 128,-1,8
 333.39 494.655 333.39 494.655 338.687 488.978 c 0,9,10
 343.976 483.594 343.976 483.594 343.578 475.613 c 128,-1,11
 343.181 467.634 343.181 467.634 336.78 461.665 c 2,12,-1
 153.093 274.384 l 1,13,-1
 361.124 25.1338 l 2,14,15
 365.905 19.0176 365.905 19.0176 364.964 11.3086 c 128,-1,16
 364.022 3.59961 364.022 3.59961 357.905 -1.17871 c 0,17,18
 352.082 -5.97852 352.082 -5.97852 344.156 -4.88574 c 128,-1,19
 336.23 -3.79297 336.23 -3.79297 330.843 3.10254 c 2,20,-1
 125.562 246.696 l 1,21,-1
 79 199.29 l 1,22,-1
 78.9678 13.7275 l 2,23,24
 78.9678 5.96484 78.9678 5.96484 73.4746 0.470703 c 128,-1,25
 67.9805 -5.02246 67.9805 -5.02246 60.2178 -5.02246 c 128,-1,26
 52.4824 -5.02246 52.4824 -5.02246 47.0059 0.618164 c 128,-1,27
 41.5303 6.25879 41.5303 6.25879 41.5303 15.0088 c 2,28,-1
 41.5303 645.978 l 2,29,30
 41.5303 654.069 41.5303 654.069 46.9121 660.039 c 128,-1,0
 52.293 666.009 52.293 666.009 60.2178 666.009 c 128,-1,1
EndSplineSet
KernsSLIFO: 15 -74 0 0 14 -72 0 0 13 -378 0 0
EndChar
StartChar: l
Encoding: 108 108 77
Width: 133
GlyphClass: 2
Flags: W
VStem: 52.5703 37.4062<5.83413 641.436>
Fore
71.2578 650.009 m 128,-1,1
 79.0205 650.009 79.0205 650.009 84.5146 644.515 c 128,-1,2
 90.0078 639.021 90.0078 639.021 90.0078 631.259 c 2,3,-1
 89.9766 630.853 l 1,4,-1
 90.0703 16.1338 l 1,5,-1
 90.0078 15.7275 l 1,6,7
 90.0078 7.96484 90.0078 7.96484 84.5146 2.4707 c 128,-1,8
 79.0205 -3.02246 79.0205 -3.02246 71.2578 -3.02246 c 128,-1,9
 63.5225 -3.02246 63.5225 -3.02246 58.0459 2.61816 c 128,-1,10
 52.5703 8.25879 52.5703 8.25879 52.5703 17.0088 c 2,11,-1
 52.5703 629.978 l 2,12,13
 52.5703 638.069 52.5703 638.069 57.9521 644.039 c 128,-1,0
 63.333 650.009 63.333 650.009 71.2578 650.009 c 128,-1,1
EndSplineSet
KernsSLIFO: 75 -52 0 0 15 -88 0 0 13 -392 0 0
EndChar
StartChar: m
Encoding: 109 109 78
Width: 559
GlyphClass: 2
Flags: W
HStem: 435.384 37.2188<132.906 207.188 363.625 437.906>
VStem: 37.1729 35.7803<9.85356 329.168> 266.359 37.3135<166.134 312.442> 497.078 35.0635<9.7221 312.422>
Fore
168.953 472.603 m 4,0,1
 216.953 472.603 216.953 472.603 242.155 451.23 c 132,-1,2
 267.356 429.858 267.356 429.858 285.673 383.103 c 5,3,4
 302.974 432.379 302.974 432.379 325.802 452.49 c 132,-1,5
 348.629 472.603 348.629 472.603 399.673 472.603 c 4,6,7
 471.119 472.603 471.119 472.603 501.631 426.061 c 4,8,9
 531.303 380.79 531.303 380.79 532.142 287.54 c 6,10,-1
 534.548 20.1338 l 5,11,-1
 534.517 19.7275 l 6,12,13
 533.869 11.3154 533.869 11.3154 529.023 6.47168 c 4,14,15
 523.53 0.977539 523.53 0.977539 515.767 0.977539 c 132,-1,16
 508.029 0.977539 508.029 0.977539 502.539 6.62012 c 4,17,18
 497.047 12.7695 497.047 12.7695 497.048 21.0088 c 6,19,-1
 497.078 276.415 l 6,20,21
 497.078 280.534 497.078 280.534 494.567 313.443 c 4,22,23
 493.657 325.16 493.657 325.16 491.46 344.592 c 132,-1,24
 489.263 364.023 489.263 364.023 486.511 372.713 c 132,-1,25
 483.758 381.401 483.758 381.401 478.993 394.375 c 132,-1,26
 474.228 407.349 474.228 407.349 467.626 412.852 c 132,-1,27
 461.023 418.354 461.023 418.354 451.686 424.712 c 132,-1,28
 442.348 431.068 442.348 431.068 429.892 433.227 c 132,-1,29
 417.437 435.384 417.437 435.384 401.485 435.384 c 4,30,31
 376.664 435.384 376.664 435.384 359.864 428.517 c 132,-1,32
 343.063 421.648 343.063 421.648 333.18 411.619 c 132,-1,33
 323.296 401.589 323.296 401.589 317.253 379.184 c 132,-1,34
 311.211 356.777 311.211 356.777 308.812 337.149 c 4,35,36
 303.301 292.095 303.301 292.095 303.673 280.009 c 6,37,-1
 303.735 277.978 l 5,38,-1
 303.859 166.134 l 5,39,-1
 303.767 166.134 l 5,40,-1
 303.798 165.728 l 5,41,42
 303.07 156.827 303.07 156.827 296.671 151.455 c 132,-1,43
 290.271 146.082 290.271 146.082 281.359 147.353 c 5,44,45
 266.289 151.813 266.289 151.813 266.298 167.009 c 6,46,-1
 266.359 276.415 l 6,47,48
 266.362 281.19 266.362 281.19 263.849 313.443 c 4,49,50
 262.939 325.159 262.939 325.159 260.742 344.592 c 132,-1,51
 258.545 364.024 258.545 364.024 255.792 372.713 c 132,-1,52
 253.038 381.4 253.038 381.4 248.273 394.375 c 132,-1,53
 243.509 407.35 243.509 407.35 236.907 412.853 c 132,-1,54
 230.305 418.354 230.305 418.354 220.967 424.712 c 132,-1,55
 211.629 431.068 211.629 431.068 199.173 433.227 c 132,-1,56
 186.718 435.384 186.718 435.384 170.767 435.384 c 4,57,58
 145.945 435.384 145.945 435.384 129.145 428.515 c 132,-1,59
 112.344 421.646 112.344 421.646 102.46 411.62 c 132,-1,60
 92.5771 401.594 92.5771 401.594 86.5342 379.182 c 132,-1,61
 80.4912 356.77 80.4912 356.77 78.0918 337.15 c 4,62,63
 72.5771 292.044 72.5771 292.044 72.9531 280.009 c 6,64,-1
 73.0166 277.978 l 5,65,-1
 73.1094 20.1338 l 5,66,-1
 73.0479 19.7275 l 5,67,68
 73.0479 11.9658 73.0479 11.9658 67.5537 6.47168 c 132,-1,69
 62.0596 0.977539 62.0596 0.977539 54.2979 0.977539 c 132,-1,70
 46.5625 0.977539 46.5625 0.977539 41.0869 6.61816 c 132,-1,71
 35.5576 12.3086 35.5576 12.3086 35.6094 21.0088 c 6,72,-1
 37.1729 285.071 l 6,73,74
 37.373 318.842 37.373 318.842 47.2822 368.862 c 4,75,76
 53.4883 400.188 53.4883 400.188 67.5 425.782 c 132,-1,77
 81.5117 451.377 81.5117 451.377 105.987 461.989 c 132,-1,78
 130.464 472.603 130.464 472.603 168.953 472.603 c 4,0,1
EndSplineSet
KernsSLIFO: 75 -52 0 0 15 -86 0 0 13 -390 0 0
EndChar
StartChar: n
Encoding: 110 110 79
Width: 397
GlyphClass: 2
Flags: W
HStem: 430.312 37.2188<116.832 282.671>
VStem: 48 35.7803<4.78227 389.327> 317.187 35.0635<1.42483 351.952>
Fore
199.78 467.531 m 4,0,1
 276.012 467.531 276.012 467.531 314.131 423.566 c 4,2,3
 351.355 380.643 351.355 380.643 352.25 282.469 c 6,4,-1
 354.687 15.0625 l 5,5,-1
 354.625 14.6562 l 5,6,7
 354.625 6.89355 354.625 6.89355 349.132 1.39941 c 132,-1,8
 343.638 -4.09375 343.638 -4.09375 335.875 -4.09375 c 132,-1,9
 328.141 -4.09375 328.141 -4.09375 322.664 1.54688 c 132,-1,10
 317.187 7.1875 317.187 7.1875 317.187 15.9375 c 6,11,-1
 317.187 271.344 l 6,12,13
 317.187 351.952 317.187 351.952 290.573 391.132 c 132,-1,14
 263.961 430.312 263.961 430.312 201.594 430.312 c 4,15,16
 136.393 430.312 136.393 430.312 110.087 398.295 c 4,17,18
 81.0303 362.93 81.0303 362.93 83.7803 274.938 c 6,19,-1
 83.8438 272.906 l 5,20,-1
 83.9365 15.0625 l 5,21,-1
 83.875 14.6562 l 5,22,23
 83.875 6.89355 83.875 6.89355 78.3818 1.39941 c 132,-1,24
 72.8877 -4.09375 72.8877 -4.09375 65.125 -4.09375 c 132,-1,25
 57.3906 -4.09375 57.3906 -4.09375 51.9141 1.54688 c 132,-1,26
 46.3848 7.2373 46.3848 7.2373 46.4365 15.9375 c 6,27,-1
 48 280 l 6,28,29
 48.6221 385.105 48.6221 385.105 83.7393 425.954 c 4,30,31
 119.479 467.531 119.479 467.531 199.78 467.531 c 4,0,1
EndSplineSet
KernsSLIFO: 75 -50 0 0 15 -84 0 0 13 -388 0 0
EndChar
StartChar: o
Encoding: 111 111 80
Width: 413
GlyphClass: 2
Flags: W
HStem: -4.20996 38.5<99.5149 298.077> 431.384 37.2188<120.684 301.837>
VStem: 44 36<74.4684 365.851> 340 36<104.707 363.783>
Fore
209.437 468.603 m 0,0,1
 376 468.603 376 468.603 376 233.259 c 0,2,3
 376 114.796 376 114.796 335.114 55.293 c 128,-1,4
 294.229 -4.20996 294.229 -4.20996 207.906 -4.20996 c 0,5,6
 124.528 -4.20996 124.528 -4.20996 84.2646 53.4512 c 128,-1,7
 44 111.112 44 111.112 44 233.259 c 0,8,9
 44 354.315 44 354.315 83.4971 411.459 c 128,-1,10
 122.993 468.603 122.993 468.603 209.437 468.603 c 0,0,1
211.25 431.384 m 128,-1,12
 141.584 431.384 141.584 431.384 110.792 383.318 c 128,-1,13
 80 335.253 80 335.253 80 233.259 c 0,14,15
 80 34.29 80 34.29 208.25 34.29 c 0,16,17
 277.348 34.29 277.348 34.29 308.674 84.3311 c 128,-1,18
 340 134.373 340 134.373 340 233.259 c 0,19,20
 340 333.662 340 333.662 310.466 382.522 c 128,-1,11
 280.933 431.384 280.933 431.384 211.25 431.384 c 128,-1,12
EndSplineSet
KernsSLIFO: 75 -46 0 0 15 -106 0 0 13 -388 0 0
EndChar
StartChar: p
Encoding: 112 112 81
Width: 399
GlyphClass: 2
Flags: W
HStem: -2.20996 38.5<145.025 286.666> 433.384 37.2188<114.9 290.395>
VStem: 46.5 37.5<-179.697 41.5088 115.083 374.345> 318.438 36<102.644 370.281>
Fore
199.875 470.603 m 4,0,1
 282.053 470.603 282.053 470.603 318.245 413.307 c 132,-1,2
 354.437 356.011 354.437 356.011 354.438 235.259 c 4,3,4
 354.438 114.188 354.438 114.188 318.821 55.9893 c 132,-1,5
 283.205 -2.20996 283.205 -2.20996 198.344 -2.20996 c 4,6,7
 154.366 -2.20996 154.366 -2.20996 129.792 6.86816 c 132,-1,8
 105.219 15.9463 105.219 15.9463 84 41.5088 c 5,9,-1
 84 -169.397 l 5,10,-1
 83.9375 -169.804 l 5,11,12
 83.9375 -177.566 83.9375 -177.566 78.4443 -183.061 c 132,-1,13
 72.9502 -188.554 72.9502 -188.554 65.1875 -188.554 c 132,-1,14
 57.4531 -188.554 57.4531 -188.554 51.9766 -182.913 c 132,-1,15
 46.5 -177.272 46.5 -177.272 46.5 -168.522 c 6,16,-1
 46.5 244.446 l 6,17,18
 47.9502 363.245 47.9502 363.245 82.2803 416.924 c 132,-1,19
 116.61 470.603 116.61 470.603 199.875 470.603 c 4,0,1
201.688 433.384 m 4,20,21
 134.928 433.384 134.928 433.384 109.464 386.438 c 132,-1,22
 84 339.493 84 339.493 84 223.321 c 4,23,24
 84 162.87 84 162.87 88.1924 128.758 c 132,-1,25
 92.3857 94.6465 92.3857 94.6465 105.61 72.6025 c 132,-1,26
 118.836 50.5586 118.836 50.5586 140.063 43.4248 c 132,-1,27
 161.29 36.29 161.29 36.29 198.688 36.29 c 4,28,29
 266.363 36.29 266.363 36.29 292.399 84.7686 c 132,-1,30
 318.437 133.247 318.437 133.247 318.438 235.259 c 4,31,32
 318.438 339.122 318.438 339.122 294.181 386.253 c 132,-1,33
 269.924 433.384 269.924 433.384 201.688 433.384 c 4,20,21
EndSplineSet
KernsSLIFO: 75 -46 0 0 15 -108 0 0 13 -388 0 0
EndChar
StartChar: q
Encoding: 113 113 82
Width: 423
GlyphClass: 2
Flags: W
HStem: -2.20996 38.5<113.271 254.913> 433.384 37.2188<109.543 285.038>
VStem: 45.5 36<102.644 370.281> 315.938 37.5<-179.697 41.5088 115.083 374.345>
Fore
200.062 470.603 m 0,0,1
 283.327 470.603 283.327 470.603 317.657 416.924 c 128,-1,2
 351.987 363.245 351.987 363.245 353.438 244.446 c 2,3,-1
 353.438 -168.522 l 2,4,5
 353.438 -177.272 353.438 -177.272 347.961 -182.913 c 128,-1,6
 342.484 -188.554 342.484 -188.554 334.75 -188.554 c 128,-1,7
 326.987 -188.554 326.987 -188.554 321.493 -183.061 c 128,-1,8
 316 -177.566 316 -177.566 316 -169.804 c 1,9,-1
 315.938 -169.397 l 1,10,-1
 315.938 41.5088 l 1,11,12
 294.719 15.9463 294.719 15.9463 270.146 6.86816 c 128,-1,13
 245.571 -2.20996 245.571 -2.20996 201.594 -2.20996 c 0,14,15
 116.732 -2.20996 116.732 -2.20996 81.1162 55.9893 c 128,-1,16
 45.5 114.188 45.5 114.188 45.5 235.259 c 0,17,18
 45.501 356.011 45.501 356.011 81.6924 413.307 c 128,-1,19
 117.885 470.603 117.885 470.603 200.062 470.603 c 0,0,1
198.25 433.384 m 0,20,21
 130.014 433.384 130.014 433.384 105.757 386.253 c 128,-1,22
 81.5 339.122 81.5 339.122 81.5 235.259 c 0,23,24
 81.501 133.247 81.501 133.247 107.538 84.7686 c 128,-1,25
 133.574 36.29 133.574 36.29 201.25 36.29 c 0,26,27
 238.647 36.29 238.647 36.29 259.874 43.4248 c 128,-1,28
 281.102 50.5586 281.102 50.5586 294.327 72.6025 c 128,-1,29
 307.552 94.6465 307.552 94.6465 311.745 128.758 c 128,-1,30
 315.938 162.87 315.938 162.87 315.938 223.321 c 0,31,32
 315.938 339.493 315.938 339.493 290.474 386.438 c 128,-1,33
 265.01 433.384 265.01 433.384 198.25 433.384 c 0,20,21
EndSplineSet
KernsSLIFO: 75 66 0 0 28 -50 0 0 27 -40 0 0 15 -108 0 0 13 -412 0 0
EndChar
StartChar: r
Encoding: 114 114 83
Width: 381
GlyphClass: 2
Flags: W
HStem: 436.384 37.2188<108.459 251.188>
VStem: 48.8945 35.7822<8.83413 400.15>
Fore
208.677 473.603 m 0,0,1
 241.378 473.603 241.378 473.603 267.08 462.239 c 128,-1,2
 292.781 450.876 292.781 450.876 304.816 439.034 c 128,-1,3
 316.853 427.192 316.853 427.192 333.927 405.446 c 0,4,5
 336.645 400.979 336.645 400.979 336.645 395.728 c 0,6,7
 336.645 387.966 336.645 387.966 331.15 382.472 c 128,-1,8
 325.656 376.978 325.656 376.978 317.895 376.978 c 0,9,10
 308.105 376.978 308.105 376.978 302.488 385.103 c 0,11,12
 271.357 435.17 271.357 435.17 210.488 436.384 c 0,13,14
 84.6748 436.384 84.6748 436.384 84.6768 279.009 c 2,15,-1
 84.7383 276.978 l 1,16,-1
 84.833 19.1338 l 1,17,-1
 84.7705 18.7275 l 1,18,19
 84.7705 10.9658 84.7705 10.9658 79.2764 5.47168 c 128,-1,20
 73.7822 -0.0224609 73.7822 -0.0224609 66.0205 -0.0224609 c 128,-1,21
 58.2852 -0.0224609 58.2852 -0.0224609 52.8086 5.61816 c 128,-1,22
 47.333 11.2588 47.333 11.2588 47.333 20.0088 c 2,23,-1
 48.8945 284.071 l 2,24,25
 48.8945 373.362 48.8945 373.362 90.2402 423.482 c 128,-1,26
 131.586 473.603 131.586 473.603 208.677 473.603 c 0,0,1
EndSplineSet
KernsSLIFO: 75 -42 0 0 15 -338 0 0 13 -640 0 0
EndChar
StartChar: s
Encoding: 115 115 84
Width: 345
GlyphClass: 2
Flags: W
HStem: 3.72754 37.2188<91.6222 236.204> 218.79 40.7188<98.9456 240.033> 439.384 37.2188<91.8259 215.308>
VStem: 20.8994 35.8438<306.425 410.168> 280.806 35.8438<69.5816 191.97>
Fore
170.682 476.603 m 0,0,1
 195.684 476.603 195.684 476.603 215.041 471.38 c 128,-1,2
 234.399 466.158 234.399 466.158 249.578 454.287 c 128,-1,3
 264.757 442.415 264.757 442.415 272.695 433.898 c 128,-1,4
 280.635 425.382 280.635 425.382 293.932 408.446 c 0,5,6
 296.649 403.977 296.649 403.977 296.649 398.728 c 0,7,8
 296.649 390.965 296.649 390.965 291.156 385.471 c 128,-1,9
 285.662 379.978 285.662 379.978 277.899 379.978 c 0,10,11
 268.11 379.978 268.11 379.978 262.493 388.103 c 0,12,13
 231.338 438.21 231.338 438.21 172.493 439.384 c 0,14,15
 110.441 439.384 110.441 439.384 83.5918 417.139 c 128,-1,16
 56.7432 394.894 56.7432 394.894 56.7432 343.978 c 0,17,18
 56.8379 315.091 56.8379 315.091 84.5391 287.3 c 128,-1,19
 112.24 259.509 112.24 259.509 156.556 259.509 c 0,20,21
 316.649 259.509 316.649 259.509 316.649 146.04 c 0,22,23
 316.649 3.72754 316.649 3.72754 152.868 3.72754 c 0,24,25
 105.756 3.72754 105.756 3.72754 77.2207 21.8418 c 128,-1,26
 48.6846 39.957 48.6846 39.957 23.6182 71.8838 c 0,27,28
 20.8994 76.3525 20.8994 76.3525 20.8994 81.6025 c 0,29,30
 20.8994 89.3643 20.8994 89.3643 26.3936 94.8584 c 128,-1,31
 31.8877 100.353 31.8877 100.353 39.6494 100.353 c 0,32,33
 49.4395 100.353 49.4395 100.353 55.0557 92.2275 c 0,34,35
 86.1357 42.2412 86.1357 42.2412 151.056 40.9463 c 0,36,37
 216.555 40.9463 216.555 40.9463 248.68 63.2676 c 128,-1,38
 280.806 85.5889 280.806 85.5889 280.806 138.946 c 0,39,40
 280.806 179.733 280.806 179.733 253.254 199.262 c 128,-1,41
 225.702 218.79 225.702 218.79 177.932 218.79 c 0,42,43
 95.9463 218.79 95.9463 218.79 58.4229 248.956 c 128,-1,44
 20.8994 279.123 20.8994 279.123 20.8994 351.071 c 0,45,46
 20.8994 414.481 20.8994 414.481 57.2012 445.542 c 128,-1,47
 93.502 476.603 93.502 476.603 170.682 476.603 c 0,0,1
EndSplineSet
KernsSLIFO: 75 -48 0 0 15 -88 0 0 13 -386 0 0
EndChar
StartChar: t
Encoding: 116 116 85
Width: 277
GlyphClass: 2
Flags: W
HStem: -6.97461 37.2188<149.183 232.293> 430.744 37.4375<36.194 95.7812 132.031 251.614>
VStem: 96.0312 35.9385<58.2408 430.682 468.182 649.919>
Fore
189.813 -6.97461 m 0,0,1
 141.73 -6.97461 141.73 -6.97461 118.881 26.4551 c 128,-1,2
 96.0312 59.8857 96.0312 59.8857 96.0312 144.557 c 2,3,-1
 95.875 430.682 l 1,4,-1
 49.2812 430.682 l 1,5,6
 49.2188 430.774 49.2188 430.774 49.083 430.759 c 128,-1,7
 48.9482 430.743 48.9482 430.743 48.875 430.744 c 0,8,9
 41.1113 430.744 41.1113 430.744 35.6182 436.237 c 128,-1,10
 30.125 441.73 30.125 441.73 30.125 449.494 c 128,-1,11
 30.124 457.418 30.124 457.418 36.0947 462.8 c 128,-1,12
 42.0654 468.182 42.0654 468.182 50.1572 468.182 c 2,13,-1
 95.7812 468.182 l 1,14,-1
 94.75 638.744 l 2,15,16
 94.751 647.494 94.751 647.494 100.228 653.135 c 128,-1,17
 105.704 658.775 105.704 658.775 113.438 658.775 c 128,-1,18
 121.202 658.775 121.202 658.775 126.695 653.282 c 128,-1,19
 132.188 647.789 132.188 647.789 132.188 640.025 c 2,20,-1
 132.157 639.619 l 1,21,-1
 132.031 468.182 l 1,22,-1
 250.345 468.182 l 2,23,24
 259.094 468.182 259.094 468.182 264.734 462.705 c 128,-1,25
 270.375 457.229 270.375 457.229 270.375 449.494 c 128,-1,26
 270.376 441.731 270.376 441.731 264.882 436.237 c 128,-1,27
 259.388 430.744 259.388 430.744 251.625 430.744 c 0,28,29
 251.283 430.774 251.283 430.774 251.22 430.775 c 1,30,-1
 132 430.682 l 1,31,-1
 131.97 151.65 l 2,32,33
 131.971 79.7969 131.971 79.7969 145.474 55.0205 c 128,-1,34
 158.978 30.2441 158.978 30.2441 191.625 30.2441 c 0,35,36
 222.908 30.2441 222.908 30.2441 241.313 42.6191 c 1,37,38
 245.211 47.6504 245.211 47.6504 253.031 47.6504 c 128,-1,39
 260.795 47.6504 260.795 47.6504 266.288 42.1572 c 128,-1,40
 271.781 36.6641 271.781 36.6641 271.781 28.9004 c 0,41,42
 271.781 19.9297 271.781 19.9297 265.345 12.6816 c 1,43,44
 247.733 1.84082 247.733 1.84082 232.712 -2.56738 c 128,-1,45
 217.689 -6.97461 217.689 -6.97461 189.813 -6.97461 c 0,0,1
EndSplineSet
KernsSLIFO: 75 -40 0 0 15 -76 0 0 14 -116 0 0 13 -380 0 0
EndChar
StartChar: u
Encoding: 117 117 86
Width: 407
GlyphClass: 2
Flags: W
HStem: 1.46875 37.2188<120.832 286.671>
VStem: 52 35.7803<79.6727 464.218> 321.187 35.0635<92.8653 464.237>
Fore
203.78 1.46875 m 0,0,1
 123.479 1.46875 123.479 1.46875 87.7393 43.0459 c 0,2,3
 52.6221 83.8945 52.6221 83.8945 52 189 c 2,4,-1
 50.4365 453.062 l 2,5,6
 50.3848 461.763 50.3848 461.763 55.9141 467.453 c 128,-1,7
 61.3906 473.094 61.3906 473.094 69.125 473.094 c 128,-1,8
 76.8877 473.094 76.8877 473.094 82.3818 467.601 c 128,-1,9
 87.875 462.106 87.875 462.106 87.875 454.344 c 1,10,-1
 87.9365 453.938 l 1,11,-1
 87.8438 196.094 l 1,12,-1
 87.7803 194.062 l 2,13,14
 85.0303 106.07 85.0303 106.07 114.087 70.7051 c 0,15,16
 140.393 38.6875 140.393 38.6875 205.594 38.6875 c 0,17,18
 267.961 38.6875 267.961 38.6875 294.573 77.8682 c 128,-1,19
 321.187 117.048 321.187 117.048 321.187 197.656 c 2,20,-1
 321.187 453.062 l 2,21,22
 321.187 461.812 321.187 461.812 326.664 467.453 c 128,-1,23
 332.141 473.094 332.141 473.094 339.875 473.094 c 128,-1,24
 347.638 473.094 347.638 473.094 353.132 467.601 c 128,-1,25
 358.625 462.106 358.625 462.106 358.625 454.344 c 1,26,-1
 358.687 453.938 l 1,27,-1
 356.25 186.531 l 2,28,29
 355.355 88.3574 355.355 88.3574 318.131 45.4336 c 0,30,31
 280.012 1.46875 280.012 1.46875 203.78 1.46875 c 0,0,1
EndSplineSet
KernsSLIFO: 75 -50 0 0 15 -108 0 0 13 -392 0 0
EndChar
StartChar: v
Encoding: 118 118 87
Width: 387
GlyphClass: 2
Flags: W
HStem: -4.83887 486.234<32.125 188.011>
VStem: 16.5 345.753<455.224 467.478 455.224 467.478>
Fore
32.125 481.396 m 0,0,1
 43.3965 481.636 43.3965 481.636 49.5625 470.958 c 1,2,3
 68.2432 317.076 68.2432 317.076 114.925 185.409 c 128,-1,4
 161.606 53.7412 161.606 53.7412 188.5 42.3955 c 1,5,6
 214.55 50.4111 214.55 50.4111 260.428 183.675 c 128,-1,7
 306.306 316.938 306.306 316.938 327.812 471.646 c 1,8,-1
 328.062 471.958 l 1,9,10
 331.945 478.683 331.945 478.683 339.438 480.697 c 128,-1,11
 346.932 482.713 346.932 482.713 353.656 478.833 c 128,-1,12
 360.356 474.965 360.356 474.965 362.253 467.478 c 128,-1,13
 364.149 459.989 364.149 459.989 359.845 452.146 c 1,14,15
 351.058 365.248 351.058 365.248 325.998 261.929 c 128,-1,16
 300.938 158.609 300.938 158.609 262.54 76.8848 c 128,-1,17
 224.143 -4.83887 224.143 -4.83887 188.011 -4.83887 c 0,18,19
 156.027 -4.83887 156.027 -4.83887 117.155 70.4766 c 128,-1,20
 78.2832 145.792 78.2832 145.792 49.9658 254.165 c 128,-1,21
 21.6484 362.537 21.6484 362.537 16.5 455.224 c 1,22,23
 12.458 463.907 12.458 463.907 18.0195 472.111 c 128,-1,24
 23.5811 480.316 23.5811 480.316 32.125 481.396 c 0,0,1
EndSplineSet
KernsSLIFO: 15 -192 0 0 13 -452 0 0
EndChar
StartChar: w
Encoding: 119 119 88
Width: 557
GlyphClass: 2
Flags: W
HStem: 1.40625 37.2188<129.906 204.188 360.625 434.906>
VStem: 34.1729 35.7803<144.841 464.155> 263.359 37.376<156.168 307.875> 494.078 35.0635<150.785 463.974>
Fore
165.953 1.40625 m 0,0,1
 127.464 1.40625 127.464 1.40625 102.987 12.0195 c 128,-1,2
 78.5117 22.6318 78.5117 22.6318 64.5 48.2266 c 128,-1,3
 50.4883 73.8213 50.4883 73.8213 44.2822 105.146 c 0,4,5
 34.373 155.167 34.373 155.167 34.1729 188.938 c 2,6,-1
 32.6094 453 l 2,7,8
 32.5576 461.7 32.5576 461.7 38.0869 467.391 c 128,-1,9
 43.5625 473.031 43.5625 473.031 51.2979 473.031 c 128,-1,10
 59.0596 473.031 59.0596 473.031 64.5537 467.537 c 128,-1,11
 70.0479 462.043 70.0479 462.043 70.0479 454.281 c 1,12,-1
 70.1094 453.875 l 1,13,-1
 70.0166 196.031 l 1,14,-1
 69.9531 194 l 2,15,16
 69.5771 181.965 69.5771 181.965 75.0918 136.858 c 0,17,18
 77.4912 117.239 77.4912 117.239 83.5342 94.8271 c 128,-1,19
 89.5771 72.415 89.5771 72.415 99.46 62.3887 c 128,-1,20
 109.344 52.3633 109.344 52.3633 126.145 45.4941 c 128,-1,21
 142.945 38.625 142.945 38.625 167.767 38.625 c 0,22,23
 183.718 38.625 183.718 38.625 196.173 40.7822 c 128,-1,24
 208.629 42.9404 208.629 42.9404 217.967 49.2969 c 128,-1,25
 227.305 55.6543 227.305 55.6543 233.907 61.1562 c 128,-1,26
 240.509 66.6592 240.509 66.6592 245.273 79.6338 c 128,-1,27
 250.038 92.6084 250.038 92.6084 252.792 101.296 c 128,-1,28
 255.545 109.984 255.545 109.984 257.742 129.417 c 128,-1,29
 259.939 148.85 259.939 148.85 260.849 160.565 c 0,30,31
 263.362 192.818 263.362 192.818 263.359 197.594 c 2,32,-1
 263.298 307 l 2,33,34
 263.289 322.195 263.289 322.195 278.359 326.656 c 1,35,36
 287.271 327.927 287.271 327.927 293.671 322.554 c 128,-1,37
 300.07 317.182 300.07 317.182 300.798 308.281 c 1,38,-1
 300.767 307.875 l 1,39,-1
 300.859 307.875 l 1,40,-1
 300.735 196.031 l 1,41,-1
 300.673 194 l 2,42,43
 300.301 181.914 300.301 181.914 305.812 136.859 c 0,44,45
 308.211 117.231 308.211 117.231 314.253 94.8252 c 128,-1,46
 320.296 72.4199 320.296 72.4199 330.18 62.3896 c 128,-1,47
 340.063 52.3604 340.063 52.3604 356.864 45.4922 c 128,-1,48
 373.664 38.625 373.664 38.625 398.485 38.625 c 0,49,50
 414.437 38.625 414.437 38.625 426.892 40.7822 c 128,-1,51
 439.348 42.9404 439.348 42.9404 448.686 49.2969 c 128,-1,52
 458.023 55.6543 458.023 55.6543 464.626 61.1572 c 128,-1,53
 471.228 66.6602 471.228 66.6602 475.993 79.6338 c 128,-1,54
 480.758 92.6074 480.758 92.6074 483.511 101.296 c 128,-1,55
 486.263 109.985 486.263 109.985 488.46 129.417 c 128,-1,56
 490.657 148.849 490.657 148.849 491.567 160.565 c 0,57,58
 494.078 193.475 494.078 193.475 494.078 197.594 c 2,59,-1
 494.048 453 l 2,60,61
 494.047 461.239 494.047 461.239 499.539 467.389 c 0,62,63
 505.029 473.031 505.029 473.031 512.767 473.031 c 128,-1,64
 520.53 473.031 520.53 473.031 526.023 467.537 c 0,65,66
 530.869 462.693 530.869 462.693 531.517 454.281 c 2,67,-1
 531.548 453.875 l 1,68,-1
 529.142 186.469 l 2,69,70
 528.303 93.2188 528.303 93.2188 498.631 47.9482 c 0,71,72
 468.119 1.40625 468.119 1.40625 396.673 1.40625 c 0,73,74
 345.629 1.40625 345.629 1.40625 322.802 21.5186 c 128,-1,75
 299.974 41.6299 299.974 41.6299 282.673 90.9062 c 1,76,77
 264.356 44.1504 264.356 44.1504 239.155 22.7783 c 128,-1,78
 213.953 1.40625 213.953 1.40625 165.953 1.40625 c 0,0,1
EndSplineSet
KernsSLIFO: 75 -52 0 0 15 -100 0 0 13 -392 0 0
EndChar
StartChar: x
Encoding: 120 120 89
Width: 427
GlyphClass: 2
Flags: W
VStem: 22.6348 317.618<9.5752 456.796>
Fore
40.125 470.714 m 0,0,1
 51.3965 470.956 51.3965 470.956 57.5625 460.276 c 2,2,-1
 182.5 271.714 l 1,3,-1
 306.062 461.276 l 2,4,5
 309.944 468.001 309.944 468.001 317.438 470.017 c 128,-1,6
 324.933 472.031 324.933 472.031 331.656 468.151 c 128,-1,7
 338.356 464.283 338.356 464.283 340.253 456.796 c 128,-1,8
 342.149 449.308 342.149 449.308 337.843 441.464 c 2,9,-1
 203.308 233.026 l 1,10,-1
 337.843 24.9951 l 2,11,12
 341.939 18.2188 341.939 18.2188 340.244 10.2441 c 128,-1,13
 338.549 2.26953 338.549 2.26953 331.688 -1.69238 c 128,-1,14
 324.964 -5.57227 324.964 -5.57227 317.454 -3.55664 c 128,-1,15
 309.944 -1.54102 309.944 -1.54102 306.062 5.18262 c 0,16,-1
 305.812 5.49512 l 1,17,-1
 182.5 196.745 l 1,18,-1
 57.5625 6.18262 l 2,19,20
 53.5166 -0.824219 53.5166 -0.824219 45.9893 -3.26562 c 128,-1,21
 38.4619 -5.70703 38.4619 -5.70703 31.375 -1.81738 c 0,22,23
 24.6504 2.06543 24.6504 2.06543 22.6348 9.5752 c 128,-1,24
 20.6191 17.085 20.6191 17.085 24.5 23.8076 c 0,25,26
 24.7148 24.0947 24.7148 24.0947 24.75 24.1514 c 1,27,-1
 160 234.688 l 1,28,-1
 24.6562 442.276 l 1,29,30
 24.7139 442.396 24.7139 442.396 24.624 442.494 c 1,31,32
 20.6191 449.375 20.6191 449.375 22.6348 456.885 c 128,-1,33
 24.6504 464.395 24.6504 464.395 31.375 468.276 c 0,34,35
 35.4219 470.613 35.4219 470.613 40.125 470.714 c 0,0,1
EndSplineSet
KernsSLIFO: 75 -44 0 0 15 -80 0 0 14 -88 0 0 13 -384 0 0
EndChar
StartChar: y
Encoding: 121 121 90
Width: 395
GlyphClass: 2
Flags: W
HStem: -190.704 37.2188<146.64 212.561> -6.5791 37.2188<121.789 280.574>
VStem: 46.5 37.5<253.36 462.383> 321.626 35.8438<-79.3239 46.2021 132.586 462.19>
Fore
189.688 -190.704 m 0,0,1
 103.951 -190.704 103.951 -190.704 50.4385 -122.548 c 0,2,3
 47.7188 -118.079 47.7188 -118.079 47.7197 -112.829 c 0,4,5
 47.7197 -105.066 47.7197 -105.066 53.2129 -99.5723 c 128,-1,6
 58.7061 -94.0791 58.7061 -94.0791 66.4697 -94.0791 c 0,7,8
 76.2598 -94.0791 76.2598 -94.0791 81.876 -102.204 c 0,9,10
 96.6924 -126.035 96.6924 -126.035 126.424 -139.444 c 128,-1,11
 156.156 -152.853 156.156 -152.853 187.876 -153.485 c 1,12,13
 327.853 -131.37 327.853 -131.37 321.626 7.9209 c 1,14,-1
 321.532 46.2021 l 1,15,16
 286.338 -6.5791 286.338 -6.5791 203.407 -6.5791 c 0,17,18
 129.42 -6.5791 129.42 -6.5791 89.1797 41.9404 c 128,-1,19
 48.9395 90.4609 48.9395 90.4609 48.9385 178.483 c 2,20,-1
 46.5 451.89 l 1,21,-1
 46.5635 452.296 l 1,22,23
 46.5635 460.06 46.5635 460.06 52.0566 465.553 c 128,-1,24
 57.5508 471.047 57.5508 471.047 65.3135 471.046 c 128,-1,25
 73.0479 471.046 73.0479 471.046 78.5234 465.405 c 128,-1,26
 83.999 459.766 83.999 459.766 84 451.015 c 2,27,-1
 84 189.608 l 2,28,29
 89.2207 107.05 89.2207 107.05 114.713 68.8447 c 128,-1,30
 140.206 30.6396 140.206 30.6396 201.595 30.6396 c 0,31,32
 262.348 30.6396 262.348 30.6396 288.898 67.5156 c 128,-1,33
 315.449 104.393 315.449 104.393 321.407 186.015 c 2,34,-1
 321.345 188.046 l 1,35,-1
 321.25 451.89 l 1,36,-1
 321.313 452.296 l 1,37,38
 321.313 460.06 321.313 460.06 326.807 465.553 c 128,-1,39
 332.301 471.047 332.301 471.047 340.063 471.046 c 128,-1,40
 347.798 471.046 347.798 471.046 353.273 465.405 c 128,-1,41
 358.749 459.766 358.749 459.766 358.75 451.015 c 2,42,-1
 357.47 0.827148 l 2,43,44
 357.47 -87.6006 357.47 -87.6006 312.477 -139.152 c 128,-1,45
 267.482 -190.704 267.482 -190.704 189.688 -190.704 c 0,0,1
EndSplineSet
KernsSLIFO: 75 64 0 0 15 -92 0 0 13 -396 0 0
EndChar
StartChar: z
Encoding: 122 122 91
Width: 365
GlyphClass: 2
Flags: W
HStem: -3.73438 37.5<63.9697 303.052> 424.894 37.5<29.7255 42.6724 42.8135 279.5>
VStem: 23.6562 298.156<15.0781 443.581>
Fore
42.8135 462.394 m 1,0,-1
 279.562 462.394 l 2,1,2
 309.014 462.384 309.014 462.384 318.252 445.693 c 128,-1,3
 327.49 429.004 327.49 429.004 312 406.175 c 2,4,-1
 63.9697 33.7656 l 1,5,-1
 301.783 33.7656 l 2,6,7
 309.875 33.7656 309.875 33.7656 315.844 28.3838 c 128,-1,8
 321.812 23.0029 321.812 23.0029 321.812 15.0781 c 128,-1,9
 321.812 7.31641 321.812 7.31641 316.318 1.82227 c 128,-1,10
 310.824 -3.67188 310.824 -3.67188 303.062 -3.67188 c 0,11,12
 302.719 -3.6416 302.719 -3.6416 302.656 -3.64062 c 1,13,-1
 63.9385 -3.73438 l 2,14,15
 34.4688 -3.73438 34.4688 -3.73438 25.2227 12.958 c 128,-1,16
 15.9766 29.6494 15.9766 29.6494 31.4697 52.4844 c 2,17,-1
 279.5 424.894 l 1,18,-1
 43.6875 424.894 l 2,19,20
 35.5967 424.894 35.5967 424.894 29.626 430.275 c 128,-1,21
 23.6553 435.657 23.6553 435.657 23.6562 443.581 c 128,-1,22
 23.6562 451.345 23.6562 451.345 29.1494 456.838 c 128,-1,23
 34.6426 462.331 34.6426 462.331 42.4062 462.331 c 0,24,25
 42.4795 462.332 42.4795 462.332 42.6152 462.316 c 0,26,-1
 42.8135 462.394 l 1,0,-1
EndSplineSet
KernsSLIFO: 75 -42 0 0 15 -98 0 0 14 -76 0 0 13 -400 0 0
EndChar
StartChar: braceleft
Encoding: 123 123 92
Width: 393
GlyphClass: 2
Flags: W
HStem: 0.743164 37.5<175.191 312.116> 333.837 37.5<58.0977 126.77> 663.399 37.5<175.191 315.468>
VStem: 136.723 38.4688<38.2432 265.88 438.579 684.754>
Fore
156.504 701.712 m 4,0,1
 172.738 701.243 172.738 701.243 301.818 700.899 c 5,2,3
 301.881 700.807 301.881 700.807 302.016 700.822 c 4,4,5
 309.986 700.837 309.986 700.837 315.48 695.344 c 132,-1,6
 320.973 689.851 320.973 689.851 320.973 682.087 c 132,-1,7
 320.973 674.353 320.973 674.353 315.332 668.876 c 132,-1,8
 309.691 663.399 309.691 663.399 300.941 663.399 c 6,9,-1
 175.191 663.399 l 5,10,11
 175.434 624.102 175.434 624.102 175.207 586.897 c 132,-1,12
 174.98 549.693 174.98 549.693 174.502 516.819 c 132,-1,13
 174.023 483.944 174.023 483.944 171.941 455.752 c 132,-1,14
 169.859 427.561 169.859 427.561 166.396 406.288 c 132,-1,15
 162.934 385.016 162.934 385.016 156.732 371.016 c 132,-1,16
 150.531 357.016 150.531 357.016 141.82 352.524 c 5,17,18
 164.824 327.775 164.824 327.775 170.008 275.795 c 132,-1,19
 175.191 223.813 175.191 223.813 175.191 38.2432 c 5,20,-1
 301.818 38.2432 l 5,21,-1
 301.818 38.1494 l 5,22,23
 302.148 38.1816 302.148 38.1816 302.223 38.1807 c 4,24,25
 309.986 38.1807 309.986 38.1807 315.479 32.6875 c 132,-1,26
 320.971 27.1943 320.971 27.1943 320.973 19.4307 c 132,-1,27
 320.973 11.6963 320.973 11.6963 315.332 6.21973 c 132,-1,28
 309.691 0.743164 309.691 0.743164 300.941 0.743164 c 6,29,-1
 156.754 0.743164 l 6,30,31
 148.662 0.743164 148.662 0.743164 142.691 6.125 c 132,-1,32
 136.721 11.5059 136.721 11.5059 136.723 19.4307 c 4,33,34
 136.723 209.007 136.723 209.007 129.223 271.422 c 132,-1,35
 121.721 333.837 121.721 333.837 99.7852 333.837 c 6,36,-1
 58.0977 333.837 l 5,37,-1
 53.0898 336.114 l 6,38,39
 48.0801 338.393 48.0801 338.393 43.0742 343.063 c 132,-1,40
 38.0684 347.735 38.0684 347.735 38.0684 352.524 c 4,41,42
 38.0684 360.286 38.0684 360.286 43.5625 365.78 c 132,-1,43
 49.0566 371.274 49.0566 371.274 56.8184 371.274 c 4,44,45
 57.1582 371.244 57.1582 371.244 57.2227 371.243 c 5,46,-1
 57.2227 371.337 l 5,47,-1
 99.7852 371.337 l 6,48,49
 120.543 371.337 120.543 371.337 129.068 411.889 c 132,-1,50
 137.594 452.441 137.594 452.441 137 521.497 c 132,-1,51
 136.406 590.553 136.406 590.553 136.723 682.087 c 4,52,53
 136.723 691.149 136.723 691.149 143.879 696.806 c 4,54,55
 149.258 701.712 149.258 701.712 156.504 701.712 c 4,0,1
EndSplineSet
EndChar
StartChar: bar
Encoding: 124 124 93
Width: 309
GlyphClass: 2
Flags: W
VStem: 138.15 37.5<-150.592 758.919>
Fore
156.836 767.583 m 128,-1,1
 164.6 767.583 164.6 767.583 170.094 762.09 c 128,-1,2
 175.586 756.597 175.586 756.597 175.586 748.833 c 0,3,-1
 175.65 748.427 l 1,4,-1
 175.65 -140.292 l 1,5,-1
 175.586 -140.698 l 1,6,7
 175.586 -148.462 175.586 -148.462 170.094 -153.955 c 128,-1,8
 164.6 -159.448 164.6 -159.448 156.836 -159.448 c 128,-1,9
 149.102 -159.448 149.102 -159.448 143.625 -153.808 c 128,-1,10
 138.15 -148.168 138.15 -148.168 138.15 -139.417 c 2,11,-1
 138.15 747.552 l 2,12,13
 138.15 755.642 138.15 755.642 143.531 761.612 c 128,-1,0
 148.912 767.583 148.912 767.583 156.836 767.583 c 128,-1,1
EndSplineSet
EndChar
StartChar: braceright
Encoding: 125 125 94
Width: 393
GlyphClass: 2
Flags: W
HStem: 0.743164 37.5<47.2531 187.516> 333.837 37.5<235.937 304.609> 663.399 38.3125<50.591 187.516>
VStem: 187.516 38.4688<38.2432 265.88 438.579 684.754> 191.451 42.0331<128.936 343.713>
Fore
206.203 701.712 m 0,0,1
 213.449 701.712 213.449 701.712 218.828 696.806 c 0,2,3
 225.984 691.149 225.984 691.149 225.984 682.087 c 0,4,5
 226.301 590.553 226.301 590.553 225.707 521.497 c 128,-1,6
 225.113 452.441 225.113 452.441 233.639 411.889 c 128,-1,7
 242.164 371.337 242.164 371.337 262.922 371.337 c 2,8,-1
 305.484 371.337 l 1,9,-1
 305.484 371.243 l 1,10,11
 305.549 371.244 305.549 371.244 305.889 371.274 c 0,12,13
 313.65 371.274 313.65 371.274 319.145 365.78 c 128,-1,14
 324.639 360.286 324.639 360.286 324.639 352.524 c 0,15,16
 324.639 347.735 324.639 347.735 319.633 343.063 c 128,-1,17
 314.627 338.393 314.627 338.393 309.617 336.114 c 2,18,-1
 304.609 333.837 l 1,19,-1
 262.922 333.837 l 2,20,21
 240.986 333.837 240.986 333.837 233.484 271.422 c 128,-1,22
 225.984 209.007 225.984 209.007 225.984 19.4307 c 0,23,24
 225.986 11.5059 225.986 11.5059 220.016 6.125 c 128,-1,25
 214.045 0.743164 214.045 0.743164 205.953 0.743164 c 2,26,-1
 61.7656 0.743164 l 2,27,28
 53.0156 0.743164 53.0156 0.743164 47.375 6.21973 c 128,-1,29
 41.7344 11.6963 41.7344 11.6963 41.7344 19.4307 c 128,-1,30
 41.7363 27.1943 41.7363 27.1943 47.2285 32.6875 c 128,-1,31
 52.7207 38.1807 52.7207 38.1807 60.4844 38.1807 c 0,32,33
 60.5586 38.1816 60.5586 38.1816 60.8887 38.1494 c 1,34,-1
 60.8887 38.2432 l 1,35,-1
 187.516 38.2432 l 1,36,37
 187.516 223.813 187.516 223.813 192.699 275.795 c 128,-1,38
 197.883 327.775 197.883 327.775 220.887 352.524 c 1,39,40
 212.176 357.016 212.176 357.016 205.975 371.016 c 128,-1,41
 199.773 385.016 199.773 385.016 196.311 406.288 c 128,-1,42
 192.848 427.561 192.848 427.561 190.766 455.752 c 128,-1,43
 188.684 483.944 188.684 483.944 188.205 516.819 c 128,-1,44
 187.727 549.693 187.727 549.693 187.5 586.897 c 128,-1,45
 187.273 624.102 187.273 624.102 187.516 663.399 c 1,46,-1
 61.7656 663.399 l 2,47,48
 53.0156 663.399 53.0156 663.399 47.375 668.876 c 128,-1,49
 41.7344 674.353 41.7344 674.353 41.7344 682.087 c 128,-1,50
 41.7344 689.851 41.7344 689.851 47.2266 695.344 c 128,-1,51
 52.7207 700.837 52.7207 700.837 60.6914 700.822 c 0,52,53
 60.8262 700.807 60.8262 700.807 60.8887 700.899 c 1,54,55
 189.969 701.243 189.969 701.243 206.203 701.712 c 0,0,1
EndSplineSet
EndChar
StartChar: brokenbar
Encoding: 166 166 95
Width: 93
GlyphClass: 2
Flags: W
VStem: 30.6348 37.4062<11.281 276.007 381.999 646.797>
Fore
49.3223 655.387 m 128,-1,1
 57.084 655.387 57.084 655.387 62.5781 649.893 c 0,2,3
 68.627 643.848 68.627 643.848 68.0723 636.637 c 2,4,-1
 68.041 636.23 l 1,5,-1
 68.1348 392.299 l 1,6,-1
 68.0723 391.893 l 1,7,8
 68.0723 384.131 68.0723 384.131 62.5781 378.637 c 128,-1,9
 57.084 373.143 57.084 373.143 49.3223 373.143 c 128,-1,10
 41.5859 373.143 41.5859 373.143 36.1094 378.783 c 128,-1,11
 30.6348 384.423 30.6348 384.423 30.6348 393.174 c 2,12,-1
 30.6348 635.355 l 2,13,14
 30.6348 643.446 30.6348 643.446 36.0156 649.417 c 128,-1,0
 41.3984 655.387 41.3984 655.387 49.3223 655.387 c 128,-1,1
49.3223 284.669 m 128,-1,16
 57.084 284.669 57.084 284.669 62.5781 279.175 c 128,-1,17
 68.0723 273.681 68.0723 273.681 68.0723 265.919 c 0,18,-1
 68.1348 265.513 l 1,19,-1
 68.1348 21.5811 l 1,20,-1
 68.0723 21.1748 l 1,21,22
 68.0723 13.4131 68.0723 13.4131 62.5781 7.91895 c 128,-1,23
 57.084 2.4248 57.084 2.4248 49.3223 2.4248 c 128,-1,24
 41.5859 2.4248 41.5859 2.4248 36.1094 8.06543 c 128,-1,25
 30.6348 13.7051 30.6348 13.7051 30.6348 22.4561 c 2,26,-1
 30.6348 264.638 l 2,27,28
 30.6348 272.729 30.6348 272.729 36.0156 278.699 c 128,-1,15
 41.3984 284.669 41.3984 284.669 49.3223 284.669 c 128,-1,16
EndSplineSet
EndChar
StartChar: questiondown
Encoding: 191 191 96
Width: 487
GlyphClass: 2
Flags: W
HStem: -2.42773 37.2188<108.469 301.188> 668.577 37.5<294.767 321.228>
VStem: 38.459 35.8438<66.2283 228.876> 290.083 36.6562<382.267 493.991 674.096 700.557> 372.052 34.1562<82.9545 138.072>
Fore
222.239 -2.42773 m 0,0,1
 123.312 -2.42773 123.312 -2.42773 80.8857 32.5684 c 128,-1,2
 38.459 67.5645 38.459 67.5645 38.459 155.104 c 0,3,4
 38.459 244.615 38.459 244.615 76.5 279 c 128,-1,5
 114.541 313.385 114.541 313.385 187.49 313.385 c 0,6,7
 229.409 313.385 229.409 313.385 258.245 341.721 c 128,-1,8
 287.081 370.058 287.081 370.058 290.083 409.473 c 1,9,10
 289.239 412.189 289.239 412.189 289.239 480.76 c 0,11,12
 289.239 488.521 289.239 488.521 294.733 494.016 c 128,-1,13
 300.228 499.51 300.228 499.51 307.989 499.51 c 128,-1,14
 315.752 499.51 315.752 499.51 321.245 494.016 c 128,-1,15
 326.739 488.522 326.739 488.522 326.739 480.76 c 0,16,17
 326.739 406.359 326.739 406.359 326.146 404.934 c 2,18,19
 325.671 344.26 325.671 344.26 286.046 308.674 c 0,20,21
 249.812 276.137 249.812 276.137 182.115 272.666 c 0,22,23
 133.419 270.169 133.419 270.169 102.956 240.62 c 0,24,25
 75.0107 213.488 75.0107 213.488 74.3027 162.197 c 0,26,27
 73.2832 88.375 73.2832 88.375 104.722 61.1553 c 0,28,29
 135.142 34.791 135.142 34.791 224.052 34.791 c 0,30,31
 306.038 34.791 306.038 34.791 339.045 55.7344 c 128,-1,32
 372.052 76.6777 372.052 76.6777 372.052 138.072 c 1,33,34
 377.669 146.197 377.669 146.197 387.458 146.197 c 0,35,36
 395.222 146.197 395.222 146.197 400.715 140.703 c 128,-1,37
 406.208 135.21 406.208 135.21 406.208 127.447 c 0,38,39
 406.208 93.7754 406.208 93.7754 399.118 71.6572 c 128,-1,40
 392.029 49.54 392.029 49.54 372.652 31.7402 c 128,-1,41
 353.275 13.9414 353.275 13.9414 316.323 5.75684 c 128,-1,42
 279.37 -2.42773 279.37 -2.42773 222.239 -2.42773 c 0,0,1
289.247 687.327 m 128,-1,44
 289.247 695.089 289.247 695.089 294.741 700.583 c 128,-1,45
 300.235 706.077 300.235 706.077 307.997 706.077 c 128,-1,46
 315.76 706.077 315.76 706.077 321.253 700.583 c 128,-1,47
 326.747 695.09 326.747 695.09 326.747 687.327 c 128,-1,48
 326.747 679.564 326.747 679.564 321.253 674.07 c 128,-1,49
 315.76 668.577 315.76 668.577 307.997 668.577 c 128,-1,50
 300.235 668.577 300.235 668.577 294.741 674.071 c 128,-1,43
 289.247 679.564 289.247 679.564 289.247 687.327 c 128,-1,44
EndSplineSet
EndChar
StartChar: acute
Encoding: 180 180 97
Width: 381
Flags: W
TeX: 0 0 0 0
HStem: 534.03 185.484<93.8662 288.321>
VStem: 76.3096 228.926<554.077 699.281>
Fore
80.623 540.391 m 132,-1,1
 75.6318 546.339 75.6318 546.339 76.3096 554.077 c 132,-1,2
 76.9873 561.815 76.9873 561.815 82.9336 566.807 c 4,3,4
 83.2148 567.002 83.2148 567.002 83.2637 567.041 c 5,5,-1
 274.283 714.989 l 5,6,7
 274.393 714.958 274.393 714.958 274.486 715.057 c 4,8,9
 280.581 720.192 280.581 720.192 288.321 719.515 c 132,-1,10
 296.062 718.838 296.062 718.838 301.052 712.891 c 4,11,12
 306.051 707.238 306.051 707.238 305.235 699.281 c 132,-1,13
 304.42 691.324 304.42 691.324 297.718 685.701 c 6,14,-1
 107.979 538.949 l 6,15,16
 102.017 533.741 102.017 533.741 93.8662 534.03 c 132,-1,0
 85.7158 534.319 85.7158 534.319 80.623 540.391 c 132,-1,1
EndSplineSet
EndChar
StartChar: asciitilde
Encoding: 126 126 98
Width: 401
Flags: W
TeX: 0 0 0 0
HStem: 526.623 37.2188<217.482 293.575> 653.061 37.2188<135.29 183.894>
VStem: 77.1133 37.4375<536.863 592.115> 193.863 34.9062<546.236 633.263> 300.113 37.4375<599.881 680.01>
Fore
153.957 690.279 m 4,0,1
 228.77 690.279 228.77 690.279 228.77 622.529 c 4,2,3
 228.77 563.842 228.77 563.842 266.395 563.842 c 4,4,5
 287.303 563.842 287.303 563.842 293.708 587.291 c 132,-1,6
 300.113 610.74 300.113 610.74 300.113 666.779 c 4,7,8
 300.113 674.542 300.113 674.542 305.606 680.035 c 132,-1,9
 311.101 685.529 311.101 685.529 318.863 685.529 c 132,-1,10
 326.598 685.529 326.598 685.529 332.073 679.889 c 132,-1,11
 337.55 674.248 337.55 674.248 337.551 665.498 c 4,12,13
 337.551 636.335 337.551 636.335 334.999 614.334 c 132,-1,14
 332.446 592.334 332.446 592.334 325.583 570.969 c 132,-1,15
 318.72 549.604 318.72 549.604 304.226 538.113 c 132,-1,16
 289.73 526.623 289.73 526.623 268.207 526.623 c 4,17,18
 193.863 526.623 193.863 526.623 193.863 594.623 c 4,19,20
 193.863 624.346 193.863 624.346 185.216 638.703 c 132,-1,21
 176.567 653.061 176.567 653.061 152.145 653.061 c 4,22,23
 143.938 653.061 143.938 653.061 137.556 649.267 c 132,-1,24
 131.173 645.474 131.173 645.474 127.321 639.032 c 132,-1,25
 123.47 632.591 123.47 632.591 120.673 624.075 c 132,-1,26
 117.876 615.56 117.876 615.56 116.841 606.115 c 132,-1,27
 115.806 596.67 115.806 596.67 115.056 586.87 c 132,-1,28
 114.306 577.07 114.306 577.07 114.549 568.061 c 132,-1,29
 114.792 559.051 114.792 559.051 114.551 551.404 c 4,30,31
 114.55 542.651 114.55 542.651 109.071 536.996 c 132,-1,32
 103.594 531.342 103.594 531.342 95.8633 531.342 c 132,-1,33
 88.0996 531.342 88.0996 531.342 82.6064 536.835 c 132,-1,34
 77.1133 542.329 77.1133 542.329 77.1133 550.092 c 4,35,36
 77.1133 626.994 77.1133 626.994 93.1553 658.637 c 132,-1,37
 109.196 690.279 109.196 690.279 153.957 690.279 c 4,0,1
EndSplineSet
EndChar
StartChar: cedilla
Encoding: 184 184 99
Width: 241
Flags: W
TeX: 0 0 0 0
HStem: 12.5205 37.4385<82.3157 171.802>
VStem: 154.5 37.2188<-91.3746 29.7983>
Fore
191.719 -46.8857 m 4,0,1
 191.719 -148.229 191.719 -148.229 96.8281 -148.229 c 4,2,3
 88.0771 -148.229 88.0771 -148.229 82.4365 -142.752 c 132,-1,4
 76.7959 -137.275 76.7959 -137.275 76.7959 -129.541 c 132,-1,5
 76.7959 -121.778 76.7959 -121.778 82.29 -116.285 c 132,-1,6
 87.7842 -110.791 87.7842 -110.791 95.5459 -110.791 c 4,7,8
 128.84 -110.791 128.84 -110.791 141.67 -95.7402 c 132,-1,9
 154.5 -80.6895 154.5 -80.6895 154.5 -45.0723 c 4,10,11
 154.5 12.5205 154.5 12.5205 96.8281 12.5205 c 4,12,13
 88.0771 12.5215 88.0771 12.5215 82.4365 17.998 c 132,-1,14
 76.7959 23.4746 76.7959 23.4746 76.7959 31.209 c 132,-1,15
 76.7959 38.9717 76.7959 38.9717 82.29 44.4648 c 132,-1,16
 87.7842 49.959 87.7842 49.959 95.5459 49.959 c 4,17,18
 191.719 49.959 191.719 49.959 191.719 -46.8857 c 4,0,1
EndSplineSet
EndChar
StartChar: dieresis
Encoding: 168 168 100
Width: 319
Flags: W
TeX: 0 0 0 0
HStem: 626.684 37.5<62.8518 89.3123 238.729 265.189>
VStem: 57.332 37.5<632.203 658.664> 233.209 37.5<632.203 658.664>
Fore
94.832 645.434 m 132,-1,1
 94.832 637.672 94.832 637.672 89.3379 632.178 c 132,-1,2
 83.8438 626.684 83.8438 626.684 76.082 626.684 c 132,-1,3
 68.3203 626.684 68.3203 626.684 62.8262 632.178 c 132,-1,4
 57.332 637.672 57.332 637.672 57.332 645.434 c 132,-1,5
 57.332 653.196 57.332 653.196 62.8262 658.689 c 132,-1,6
 68.3203 664.184 68.3203 664.184 76.082 664.184 c 132,-1,7
 83.8438 664.184 83.8438 664.184 89.3379 658.689 c 132,-1,0
 94.832 653.196 94.832 653.196 94.832 645.434 c 132,-1,1
270.709 645.434 m 128,-1,9
 270.709 637.672 270.709 637.672 265.215 632.178 c 128,-1,10
 259.721 626.684 259.721 626.684 251.959 626.684 c 128,-1,11
 244.197 626.684 244.197 626.684 238.703 632.178 c 128,-1,12
 233.209 637.672 233.209 637.672 233.209 645.434 c 128,-1,13
 233.209 653.196 233.209 653.196 238.703 658.689 c 128,-1,14
 244.197 664.184 244.197 664.184 251.959 664.184 c 128,-1,15
 259.721 664.184 259.721 664.184 265.215 658.689 c 128,-1,8
 270.709 653.196 270.709 653.196 270.709 645.434 c 128,-1,9
EndSplineSet
EndChar
StartChar: circumflex
Encoding: 710 710 101
Width: 399
Flags: W
TeX: 0 0 0 0
HStem: 513.021 172.289<205.092 312.324>
VStem: 75.9717 249.573<526.093 535.835 535.819 535.835>
Fore
224.492 679.242 m 5,0,-1
 316.492 547.461 l 5,1,2
 316.486 547.367 316.486 547.367 316.615 547.308 c 4,3,4
 323.53 543.329 323.53 543.329 325.545 535.835 c 132,-1,5
 327.56 528.341 327.56 528.341 323.681 521.617 c 132,-1,6
 319.812 514.917 319.812 514.917 312.324 513.021 c 132,-1,7
 304.837 511.124 304.837 511.124 296.992 515.43 c 5,8,-1
 208.5 640.862 l 5,9,-1
 104.523 515.43 l 5,10,11
 97.7471 511.334 97.7471 511.334 89.7725 513.029 c 132,-1,12
 81.7979 514.725 81.7979 514.725 77.8369 521.586 c 132,-1,13
 73.9551 528.31 73.9551 528.31 75.9717 535.819 c 132,-1,14
 77.9883 543.329 77.9883 543.329 84.7119 547.211 c 4,15,16
 84.7754 547.249 84.7754 547.249 84.9043 547.31 c 4,17,-1
 85.0234 547.461 l 5,18,-1
 186.992 679.273 l 5,19,20
 194.172 685.119 194.172 685.119 205.092 685.31 c 132,-1,21
 216.012 685.499 216.012 685.499 224.492 679.242 c 5,0,-1
EndSplineSet
EndChar
StartChar: caron
Encoding: 711 711 102
Width: 399
Flags: W
TeX: 0 0 0 0
HStem: 503.62 172.289<201.092 308.324>
VStem: 71.9717 249.573<653.095 662.837 653.095 653.11>
Fore
220.492 509.688 m 1,0,1
 212.012 503.431 212.012 503.431 201.092 503.62 c 128,-1,2
 190.172 503.811 190.172 503.811 182.992 509.656 c 1,3,-1
 81.0234 641.469 l 1,4,-1
 80.9043 641.62 l 0,5,6
 80.7754 641.681 80.7754 641.681 80.7119 641.719 c 0,7,8
 73.9883 645.601 73.9883 645.601 71.9717 653.11 c 128,-1,9
 69.9551 660.62 69.9551 660.62 73.8369 667.344 c 128,-1,10
 77.7979 674.205 77.7979 674.205 85.7725 675.9 c 128,-1,11
 93.7471 677.596 93.7471 677.596 100.523 673.5 c 1,12,-1
 204.5 548.067 l 1,13,-1
 292.992 673.5 l 1,14,15
 300.837 677.806 300.837 677.806 308.324 675.909 c 128,-1,16
 315.812 674.013 315.812 674.013 319.681 667.312 c 128,-1,17
 323.56 660.589 323.56 660.589 321.545 653.095 c 128,-1,18
 319.53 645.601 319.53 645.601 312.615 641.622 c 0,19,20
 312.486 641.562 312.486 641.562 312.492 641.469 c 1,21,-1
 220.492 509.688 l 1,0,1
EndSplineSet
EndChar
StartChar: ring
Encoding: 730 730 103
Width: 340
Flags: W
TeX: 0 0 0 0
HStem: 528.167 37.2188<88.205 209.383> 689.854 37.2188<88.205 209.383>
VStem: 68.0459 37.4375<548.089 707.151> 228.796 37.4375<581.046 674.195>
Fore
164.89 727.073 m 0,0,1
 266.233 727.073 266.233 727.073 266.233 632.198 c 0,2,3
 266.233 629.962 266.233 629.962 265.765 627.636 c 1,4,5
 266.233 625.31 266.233 625.31 266.233 623.042 c 0,6,7
 266.233 528.167 266.233 528.167 164.89 528.167 c 0,8,9
 68.0469 528.167 68.0469 528.167 68.0459 624.323 c 0,10,11
 68.0459 625.882 68.0459 625.882 68.3584 627.636 c 2,12,13
 68.0459 629.407 68.0459 629.407 68.0459 630.917 c 0,14,15
 68.0469 727.073 68.0469 727.073 164.89 727.073 c 0,0,1
163.078 689.854 m 0,16,17
 105.483 689.854 105.483 689.854 105.483 632.198 c 0,18,19
 105.483 629.962 105.483 629.962 105.015 627.636 c 1,20,21
 105.483 625.31 105.483 625.31 105.483 623.042 c 0,22,23
 105.483 565.386 105.483 565.386 163.078 565.386 c 0,24,25
 198.697 565.386 198.697 565.386 213.747 578.209 c 128,-1,26
 228.797 591.033 228.797 591.033 228.796 624.323 c 0,27,28
 228.796 625.882 228.796 625.882 229.108 627.636 c 2,29,30
 228.796 629.407 228.796 629.407 228.796 630.917 c 0,31,32
 228.797 664.208 228.797 664.208 213.747 677.031 c 128,-1,33
 198.697 689.854 198.697 689.854 163.078 689.854 c 0,16,17
EndSplineSet
EndChar
StartChar: breve
Encoding: 728 728 104
Width: 287
Flags: W
TeX: 0 0 0 0
HStem: 555.351 37.2188<65.146 186.318>
VStem: 44.9854 37.4385<575.268 664.755> 205.734 37.4385<608.243 664.755>
Fore
141.829 555.351 m 0,0,1
 44.9854 555.351 44.9854 555.351 44.9854 651.523 c 0,2,3
 44.9854 659.286 44.9854 659.286 50.4785 664.78 c 128,-1,4
 55.9727 670.273 55.9727 670.273 63.7354 670.273 c 128,-1,5
 71.4697 670.273 71.4697 670.273 76.9463 664.633 c 128,-1,6
 82.4229 658.991 82.4229 658.991 82.4238 650.241 c 0,7,8
 82.4238 592.569 82.4238 592.569 140.017 592.569 c 0,9,10
 175.633 592.569 175.633 592.569 190.684 605.399 c 128,-1,11
 205.734 618.23 205.734 618.23 205.734 651.523 c 0,12,13
 205.734 659.286 205.734 659.286 211.229 664.78 c 128,-1,14
 216.722 670.273 216.722 670.273 224.484 670.273 c 128,-1,15
 232.219 670.273 232.219 670.273 237.695 664.633 c 128,-1,16
 243.172 658.991 243.172 658.991 243.173 650.241 c 0,17,18
 243.173 555.351 243.173 555.351 141.829 555.351 c 0,0,1
EndSplineSet
EndChar
StartChar: tilde
Encoding: 732 732 105
Width: 401
Flags: W
TeX: 0 0 0 0
HStem: 527.623 37.2188<217.482 293.575> 654.061 37.2188<135.29 183.894>
VStem: 77.1133 37.4375<537.863 593.115> 193.863 34.9062<547.236 634.263> 300.113 37.4375<600.881 681.01>
Fore
153.957 691.279 m 0,0,1
 228.77 691.279 228.77 691.279 228.77 623.529 c 0,2,3
 228.77 564.842 228.77 564.842 266.395 564.842 c 0,4,5
 287.303 564.842 287.303 564.842 293.708 588.291 c 128,-1,6
 300.113 611.74 300.113 611.74 300.113 667.779 c 0,7,8
 300.113 675.542 300.113 675.542 305.606 681.035 c 128,-1,9
 311.101 686.529 311.101 686.529 318.863 686.529 c 128,-1,10
 326.598 686.529 326.598 686.529 332.073 680.889 c 128,-1,11
 337.55 675.248 337.55 675.248 337.551 666.498 c 0,12,13
 337.551 637.335 337.551 637.335 334.999 615.334 c 128,-1,14
 332.446 593.334 332.446 593.334 325.583 571.969 c 128,-1,15
 318.72 550.604 318.72 550.604 304.226 539.113 c 128,-1,16
 289.73 527.623 289.73 527.623 268.207 527.623 c 0,17,18
 193.863 527.623 193.863 527.623 193.863 595.623 c 0,19,20
 193.863 625.346 193.863 625.346 185.216 639.703 c 128,-1,21
 176.567 654.061 176.567 654.061 152.145 654.061 c 0,22,23
 143.938 654.061 143.938 654.061 137.556 650.267 c 128,-1,24
 131.173 646.474 131.173 646.474 127.321 640.032 c 128,-1,25
 123.47 633.591 123.47 633.591 120.673 625.075 c 128,-1,26
 117.876 616.56 117.876 616.56 116.841 607.115 c 128,-1,27
 115.806 597.67 115.806 597.67 115.056 587.87 c 128,-1,28
 114.306 578.07 114.306 578.07 114.549 569.061 c 128,-1,29
 114.792 560.051 114.792 560.051 114.551 552.404 c 0,30,31
 114.55 543.651 114.55 543.651 109.071 537.996 c 128,-1,32
 103.594 532.342 103.594 532.342 95.8633 532.342 c 128,-1,33
 88.0996 532.342 88.0996 532.342 82.6064 537.835 c 128,-1,34
 77.1133 543.329 77.1133 543.329 77.1133 551.092 c 0,35,36
 77.1133 627.994 77.1133 627.994 93.1553 659.637 c 128,-1,37
 109.196 691.279 109.196 691.279 153.957 691.279 c 0,0,1
EndSplineSet
EndChar
StartChar: ogonek
Encoding: 731 731 106
Width: 228
Flags: W
TeX: 0 0 0 0
HStem: -120.728 37.4385<114.363 170.876> 40.0225 37.4385<81.3898 170.876>
VStem: 61.4727 37.2188<-63.8727 57.3003>
Fore
61.4727 -19.3838 m 0,0,1
 61.4727 77.4609 61.4727 77.4609 157.646 77.4609 c 0,2,3
 165.407 77.4609 165.407 77.4609 170.901 71.9668 c 128,-1,4
 176.396 66.4736 176.396 66.4736 176.396 58.7109 c 128,-1,5
 176.396 50.9766 176.396 50.9766 170.755 45.5 c 128,-1,6
 165.114 40.0234 165.114 40.0234 156.363 40.0225 c 0,7,8
 98.6914 40.0225 98.6914 40.0225 98.6914 -17.5703 c 0,9,10
 98.6914 -53.1875 98.6914 -53.1875 111.521 -68.2383 c 128,-1,11
 124.352 -83.2891 124.352 -83.2891 157.646 -83.2891 c 0,12,13
 165.407 -83.2891 165.407 -83.2891 170.901 -88.7832 c 128,-1,14
 176.396 -94.2764 176.396 -94.2764 176.396 -102.039 c 128,-1,15
 176.396 -109.773 176.396 -109.773 170.755 -115.25 c 128,-1,16
 165.114 -120.727 165.114 -120.727 156.363 -120.728 c 0,17,18
 61.4727 -120.728 61.4727 -120.728 61.4727 -19.3838 c 0,0,1
EndSplineSet
EndChar
StartChar: hungarumlaut
Encoding: 733 733 107
Width: 572
Flags: W
TeX: 0 0 0 0
HStem: 534.03 185.484<93.8662 288.321>
VStem: 76.3096 487.386<554.077 697.369>
Fore
80.623 540.391 m 128,-1,1
 75.6318 546.339 75.6318 546.339 76.3096 554.077 c 128,-1,2
 76.9873 561.815 76.9873 561.815 82.9336 566.807 c 0,3,4
 83.2148 567.002 83.2148 567.002 83.2637 567.041 c 1,5,-1
 274.283 714.989 l 1,6,7
 274.393 714.958 274.393 714.958 274.486 715.057 c 0,8,9
 280.581 720.192 280.581 720.192 288.321 719.515 c 128,-1,10
 296.062 718.838 296.062 718.838 301.052 712.891 c 0,11,12
 306.051 707.238 306.051 707.238 305.235 699.281 c 128,-1,13
 304.42 691.324 304.42 691.324 297.718 685.701 c 2,14,-1
 107.979 538.949 l 2,15,16
 102.017 533.741 102.017 533.741 93.8662 534.03 c 128,-1,0
 85.7158 534.319 85.7158 534.319 80.623 540.391 c 128,-1,1
340.405 540.391 m 128,-1,18
 335.414 546.339 335.414 546.339 336.092 554.077 c 128,-1,19
 336.77 561.815 336.77 561.815 342.716 566.807 c 0,20,21
 342.997 567.002 342.997 567.002 343.046 567.041 c 1,22,-1
 534.065 714.989 l 1,23,24
 534.175 714.958 534.175 714.958 534.269 715.057 c 0,25,26
 540.363 720.192 540.363 720.192 548.104 719.515 c 128,-1,27
 555.844 718.838 555.844 718.838 560.834 712.891 c 0,28,29
 565.833 707.238 565.833 707.238 563.695 697.369 c 0,30,31
 561.906 689.109 561.906 689.109 557.5 685.701 c 2,32,-1
 367.761 538.949 l 2,33,34
 361.799 533.741 361.799 533.741 353.648 534.03 c 128,-1,17
 345.498 534.319 345.498 534.319 340.405 540.391 c 128,-1,18
EndSplineSet
EndChar
StartChar: dotaccent
Encoding: 729 729 108
Width: 144
Flags: W
TeX: 0 0 0 0
HStem: 626.684 37.5<62.8518 89.3123>
VStem: 57.332 37.5<632.203 658.664>
Fore
94.832 645.434 m 128,-1,1
 94.832 637.672 94.832 637.672 89.3379 632.178 c 128,-1,2
 83.8438 626.684 83.8438 626.684 76.082 626.684 c 128,-1,3
 68.3203 626.684 68.3203 626.684 62.8262 632.178 c 128,-1,4
 57.332 637.672 57.332 637.672 57.332 645.434 c 128,-1,5
 57.332 653.196 57.332 653.196 62.8262 658.689 c 128,-1,6
 68.3203 664.184 68.3203 664.184 76.082 664.184 c 128,-1,7
 83.8438 664.184 83.8438 664.184 89.3379 658.689 c 128,-1,0
 94.832 653.196 94.832 653.196 94.832 645.434 c 128,-1,1
EndSplineSet
EndChar
StartChar: dotlessi
Encoding: 305 305 136
Width: 135
Flags: W
TeX: 0 0 0 0
VStem: 52.0635 37.4053<7.83413 463.436>
Fore
70.75 472.009 m 132,-1,1
 78.5137 472.009 78.5137 472.009 84.0068 466.515 c 132,-1,2
 89.5 461.021 89.5 461.021 89.5 453.259 c 6,3,-1
 89.4688 452.853 l 5,4,-1
 89.5635 18.1338 l 5,5,-1
 89.5 17.7275 l 5,6,7
 89.5 9.96484 89.5 9.96484 84.0068 4.47168 c 132,-1,8
 78.5137 -1.02246 78.5137 -1.02246 70.75 -1.02246 c 132,-1,9
 63.0156 -1.02246 63.0156 -1.02246 57.5391 4.61816 c 132,-1,10
 52.0635 10.2588 52.0635 10.2588 52.0635 19.0088 c 6,11,-1
 52.0635 451.978 l 6,12,13
 52.0635 460.068 52.0635 460.068 57.4453 466.039 c 132,-1,0
 62.8262 472.009 62.8262 472.009 70.75 472.009 c 132,-1,1
EndSplineSet
EndChar
